<svg width="150" height="150" viewBox="0 0 150 150" fill="none" xmlns="http://www.w3.org/2000/svg">
<path d="M150 75C150 116.421 116.421 150 75 150C33.5786 150 0 116.421 0 75C0 33.5786 33.5786 0 75 0C116.421 0 150 33.5786 150 75Z" fill="#D9D9D9"/>
<path d="M35.5425 89.2326L44.9067 103.963L43.123 105.097L33.7588 90.3666L35.5425 89.2326ZM48.253 101.835L41.2298 90.7878L42.8697 89.7453L43.967 91.4715L44.1109 91.3801C43.9661 90.644 44.0466 89.9498 44.3524 89.2976C44.6551 88.6406 45.1661 88.0835 45.8853 87.6262C46.6142 87.1629 47.3259 86.9427 48.0205 86.9657C48.7169 86.9808 49.3892 87.1964 50.0374 87.6124L50.1525 87.5393C50.0727 86.7888 50.2089 86.0659 50.5614 85.3706C50.9107 84.6705 51.481 84.0689 52.2722 83.566C53.2599 82.938 54.2645 82.7337 55.2858 82.9529C56.3041 83.1673 57.2263 83.9242 58.0524 85.2237L62.7528 92.6174L61.0554 93.6965L56.355 86.3027C55.8368 85.4876 55.2435 85.0468 54.575 84.9802C53.9066 84.9137 53.2703 85.0724 52.6661 85.4565C51.8893 85.9503 51.4369 86.5678 51.3089 87.309C51.1779 88.0454 51.3394 88.7709 51.7936 89.4853L56.366 96.6777L54.6398 97.7751L49.8297 90.2087C49.4304 89.5805 48.905 89.2042 48.2536 89.0797C47.5991 88.9504 46.9506 89.09 46.3081 89.4985C45.8669 89.7789 45.5292 90.1586 45.295 90.6374C45.0656 91.1131 44.966 91.6343 44.9962 92.2008C45.0282 92.7595 45.2165 93.3097 45.5609 93.8516L49.9504 100.756L48.253 101.835ZM69.2719 88.8367C68.5718 89.2817 67.8527 89.5537 67.1144 89.6528C66.3731 89.747 65.6746 89.6491 65.0189 89.359C64.3602 89.0641 63.8022 88.557 63.3449 87.8378C62.9426 87.2049 62.7411 86.6125 62.7404 86.0609C62.7368 85.5044 62.8719 84.9808 63.1458 84.4903C63.4197 83.9997 63.7733 83.5393 64.2066 83.1089C64.6417 82.6707 65.0945 82.255 65.5649 81.8617C66.1813 81.3486 66.6844 80.9379 67.0741 80.6296C67.4656 80.3134 67.7221 80.0392 67.8438 79.807C67.9703 79.5717 67.9467 79.3174 67.7729 79.0441L67.7363 78.9866C67.2852 78.2769 66.7405 77.849 66.1021 77.7027C65.4686 77.5534 64.761 77.7271 63.9794 78.224C63.1691 78.7391 62.6465 79.3204 62.4118 79.9679C62.1771 80.6154 62.0942 81.1999 62.1633 81.7216L60.1864 82.1704C60.0473 81.3162 60.0987 80.5497 60.3404 79.8709C60.5839 79.1842 60.9437 78.5852 61.4198 78.0738C61.8976 77.5546 62.4146 77.1182 62.9708 76.7646C63.3257 76.539 63.7607 76.323 64.2758 76.1167C64.7928 75.9025 65.3493 75.7878 65.9455 75.7723C66.5464 75.7539 67.1568 75.9145 67.7768 76.2543C68.3968 76.594 68.9856 77.2026 69.5435 78.0801L74.1707 85.3588L72.4733 86.4379L71.5223 84.9419L71.436 84.9967C71.4733 85.3096 71.4446 85.6881 71.3498 86.1321C71.255 86.5761 71.0457 87.0358 70.7217 87.511C70.3977 87.9863 69.9144 88.4282 69.2719 88.8367ZM68.5615 87.1473C69.2328 86.7205 69.7147 86.229 70.0074 85.6726C70.3048 85.1132 70.4384 84.5503 70.4082 83.9837C70.3827 83.4142 70.2237 82.8992 69.9311 82.4389L68.9434 80.8854C68.9264 81.0174 68.8185 81.1971 68.6196 81.4245C68.4226 81.644 68.1826 81.8808 67.8996 82.1347C67.6184 82.3808 67.3414 82.6175 67.0685 82.8448C66.7973 83.0643 66.5783 83.244 66.4113 83.3838C66.0068 83.7218 65.6538 84.0774 65.3526 84.4508C65.053 84.8162 64.8665 85.2007 64.7931 85.6042C64.7215 85.9999 64.8228 86.4135 65.0972 86.845C65.4721 87.4348 65.9738 87.742 66.6022 87.7667C67.2323 87.7836 67.8854 87.5771 68.5615 87.1473ZM84.5081 84.9273C83.6882 85.4486 82.9163 85.7912 82.1924 85.9552C81.4715 86.1239 80.8063 86.163 80.1967 86.0726C79.5949 85.9838 79.057 85.8208 78.583 85.5835L79.3316 83.7745C79.6131 83.8784 79.9536 83.9851 80.3531 84.0946C80.7558 84.209 81.2218 84.2325 81.7513 84.1652C82.2886 84.0997 82.8906 83.855 83.5571 83.4313C84.4489 82.8644 85.0478 82.1807 85.3536 81.3803C85.6594 80.5799 85.5197 79.7194 84.9345 78.7988L83.5079 76.5548L83.364 76.6462C83.3674 76.9269 83.3485 77.289 83.3073 77.7326C83.2679 78.1683 83.108 78.6369 82.8276 79.1384C82.5489 79.632 82.0499 80.1074 81.3307 80.5647C80.4388 81.1316 79.5039 81.4297 78.5261 81.4589C77.553 81.485 76.6042 81.2264 75.6797 80.683C74.76 80.1366 73.9344 79.2879 73.2028 78.1372C72.4834 77.0056 72.056 75.8937 71.9205 74.8016C71.782 73.7047 71.9213 72.7005 72.3383 71.789C72.7523 70.8728 73.4244 70.119 74.3546 69.5276C75.0738 69.0704 75.7206 68.8275 76.295 68.799C76.8711 68.7627 77.3678 68.8239 77.7852 68.9827C78.2044 69.1337 78.5373 69.2655 78.7839 69.378L78.9565 69.2683L77.8408 67.5133L79.4807 66.4708L86.705 77.8348C87.3086 78.7842 87.5836 79.6933 87.53 80.5622C87.4843 81.4329 87.1878 82.2374 86.6406 82.9758C86.1012 83.716 85.3904 84.3665 84.5081 84.9273ZM80.5915 78.8936C81.2724 78.4607 81.7487 77.9391 82.0205 77.3287C82.2922 76.7183 82.3644 76.0429 82.2371 75.3024C82.1097 74.562 81.787 73.7842 81.2688 72.9691C80.7628 72.1731 80.1963 71.5469 79.5694 71.0903C78.9426 70.6338 78.2844 70.3822 77.5951 70.3357C76.9057 70.2892 76.2158 70.4854 75.5253 70.9244C74.8061 71.3816 74.3225 71.9449 74.0747 72.6141C73.8317 73.2803 73.7854 73.9965 73.9358 74.7626C74.091 75.5258 74.4064 76.2813 74.8819 77.0293C75.3697 77.7965 75.9209 78.3988 76.5355 78.8361C77.152 79.2657 77.8042 79.4974 78.4923 79.5312C79.1821 79.5573 79.8818 79.3447 80.5915 78.8936ZM94.3892 72.8286C93.3247 73.5053 92.2571 73.8541 91.1864 73.875C90.1174 73.888 89.1046 73.6028 88.1479 73.0193C87.1929 72.4279 86.3558 71.5664 85.6364 70.4348C84.917 69.3032 84.4892 68.1748 84.3528 67.0496C84.2183 65.9165 84.3686 64.8716 84.804 63.9148C85.2411 62.9502 85.9583 62.1509 86.9556 61.5168C87.531 61.1511 88.1602 60.8857 88.8431 60.7209C89.526 60.556 90.2348 60.5431 90.9695 60.682C91.7011 60.8161 92.4276 61.1487 93.149 61.6798C93.8704 62.2109 94.5588 62.9919 95.2142 64.0228L95.6714 64.7421L87.1556 70.1558L86.2229 68.6885L93.0125 64.3722C92.6162 63.7489 92.1379 63.2719 91.5777 62.9413C91.0222 62.6077 90.4268 62.4442 89.7914 62.4509C89.1609 62.4546 88.5387 62.6515 87.925 63.0416C87.2489 63.4714 86.7706 64.0111 86.4901 64.6608C86.2113 65.3025 86.1093 65.9734 86.1839 66.6732C86.2585 67.3731 86.4894 68.0276 86.8766 68.6365L87.4984 69.6147C88.0288 70.449 88.6223 71.0648 89.2788 71.4621C89.9371 71.8515 90.6212 72.0327 91.331 72.0056C92.0379 71.9736 92.7341 71.7397 93.4198 71.3038C93.8657 71.0203 94.2289 70.702 94.5093 70.3487C94.7914 69.9875 94.9835 69.5961 95.0857 69.1743C95.1848 68.7477 95.1843 68.2969 95.0843 67.8219L97.0168 67.2397C97.1978 67.9056 97.2186 68.5791 97.0793 69.2602C96.9369 69.9364 96.6407 70.5826 96.1907 71.1985C95.7377 71.8097 95.1372 72.3531 94.3892 72.8286ZM101.399 68.0489L94.3761 57.0015L96.016 55.959L97.1133 57.6851L97.2572 57.5937C97.1124 56.8576 97.1929 56.1634 97.4987 55.5112C97.8014 54.8542 98.3124 54.2971 99.0316 53.8398C99.7605 53.3765 100.472 53.1563 101.167 53.1793C101.863 53.1944 102.535 53.41 103.184 53.826L103.299 53.7529C103.219 53.0024 103.355 52.2796 103.708 51.5842C104.057 50.8841 104.627 50.2825 105.418 49.7796C106.406 49.1516 107.411 48.9473 108.432 49.1665C109.45 49.3809 110.373 50.1379 111.199 51.4373L115.899 58.8311L114.202 59.9101L109.501 52.5164C108.983 51.7012 108.39 51.2604 107.721 51.1938C107.053 51.1273 106.417 51.2861 105.812 51.6702C105.036 52.164 104.583 52.7815 104.455 53.5227C104.324 54.2591 104.486 54.9845 104.94 55.6989L109.512 62.8913L107.786 63.9887L102.976 56.4223C102.577 55.7942 102.051 55.4179 101.4 55.2934C100.745 55.1641 100.097 55.3037 99.4544 55.7121C99.0132 55.9926 98.6755 56.3722 98.4413 56.851C98.2119 57.3268 98.1123 57.8479 98.1425 58.4144C98.1745 58.9731 98.3627 59.5234 98.7072 60.0652L103.097 66.9699L101.399 68.0489Z" fill="black"/>
</svg>
