<svg width="1920" height="697" viewBox="0 0 1920 697" fill="none" xmlns="http://www.w3.org/2000/svg">
<rect width="1920" height="697" rx="25" fill="#D9D9D9"/>
<path d="M234.543 448.233L243.907 462.963L242.123 464.097L232.759 449.367L234.543 448.233ZM247.253 460.835L240.23 449.788L241.87 448.745L242.967 450.471L243.111 450.38C242.966 449.644 243.047 448.95 243.352 448.298C243.655 447.641 244.166 447.083 244.885 446.626C245.614 446.163 246.326 445.943 247.021 445.966C247.717 445.981 248.389 446.196 249.037 446.612L249.152 446.539C249.073 445.789 249.209 445.066 249.561 444.371C249.911 443.67 250.481 443.069 251.272 442.566C252.26 441.938 253.264 441.734 254.286 441.953C255.304 442.167 256.226 442.924 257.052 444.224L261.753 451.617L260.055 452.697L255.355 445.303C254.837 444.488 254.243 444.047 253.575 443.98C252.907 443.914 252.27 444.072 251.666 444.457C250.889 444.95 250.437 445.568 250.309 446.309C250.178 447.045 250.339 447.771 250.794 448.485L255.366 455.678L253.64 456.775L248.83 449.209C248.43 448.581 247.905 448.204 247.254 448.08C246.599 447.95 245.951 448.09 245.308 448.499C244.867 448.779 244.529 449.159 244.295 449.637C244.066 450.113 243.966 450.634 243.996 451.201C244.028 451.759 244.216 452.31 244.561 452.852L248.95 459.756L247.253 460.835ZM268.272 447.837C267.572 448.282 266.853 448.554 266.114 448.653C265.373 448.747 264.675 448.649 264.019 448.359C263.36 448.064 262.802 447.557 262.345 446.838C261.943 446.205 261.741 445.613 261.74 445.061C261.737 444.504 261.872 443.981 262.146 443.49C262.42 443 262.773 442.539 263.207 442.109C263.642 441.671 264.094 441.255 264.565 440.862C265.181 440.349 265.684 439.938 266.074 439.63C266.466 439.313 266.722 439.039 266.844 438.807C266.97 438.572 266.947 438.317 266.773 438.044L266.736 437.987C266.285 437.277 265.74 436.849 265.102 436.703C264.469 436.553 263.761 436.727 262.979 437.224C262.169 437.739 261.647 438.32 261.412 438.968C261.177 439.615 261.094 440.2 261.163 440.722L259.186 441.17C259.047 440.316 259.099 439.55 259.34 438.871C259.584 438.184 259.944 437.585 260.42 437.074C260.898 436.555 261.415 436.118 261.971 435.765C262.326 435.539 262.761 435.323 263.276 435.117C263.793 434.903 264.349 434.788 264.945 434.772C265.546 434.754 266.157 434.915 266.777 435.254C267.397 435.594 267.986 436.203 268.543 437.08L273.171 444.359L271.473 445.438L270.522 443.942L270.436 443.997C270.473 444.31 270.445 444.688 270.35 445.132C270.255 445.576 270.046 446.036 269.722 446.511C269.398 446.986 268.914 447.428 268.272 447.837ZM267.561 446.147C268.233 445.721 268.715 445.229 269.007 444.673C269.305 444.113 269.438 443.55 269.408 442.984C269.383 442.414 269.224 441.899 268.931 441.439L267.943 439.885C267.926 440.017 267.818 440.197 267.62 440.424C267.423 440.644 267.183 440.881 266.9 441.135C266.618 441.381 266.341 441.617 266.068 441.845C265.797 442.064 265.578 442.244 265.411 442.384C265.007 442.722 264.654 443.077 264.353 443.451C264.053 443.816 263.867 444.201 263.793 444.604C263.721 445 263.823 445.413 264.097 445.845C264.472 446.435 264.974 446.742 265.602 446.767C266.232 446.784 266.885 446.577 267.561 446.147ZM283.508 443.927C282.688 444.449 281.916 444.791 281.192 444.955C280.472 445.124 279.806 445.163 279.197 445.073C278.595 444.984 278.057 444.821 277.583 444.584L278.332 442.775C278.613 442.878 278.954 442.985 279.353 443.095C279.756 443.209 280.222 443.233 280.751 443.165C281.289 443.1 281.891 442.855 282.557 442.431C283.449 441.864 284.048 441.181 284.354 440.38C284.659 439.58 284.52 438.719 283.934 437.799L282.508 435.555L282.364 435.646C282.367 435.927 282.349 436.289 282.307 436.733C282.268 437.168 282.108 437.637 281.828 438.138C281.549 438.632 281.05 439.107 280.331 439.565C279.439 440.132 278.504 440.43 277.526 440.459C276.553 440.485 275.604 440.226 274.68 439.683C273.76 439.137 272.934 438.288 272.203 437.137C271.483 436.006 271.056 434.894 270.921 433.802C270.782 432.705 270.921 431.701 271.338 430.789C271.752 429.873 272.424 429.119 273.355 428.528C274.074 428.07 274.721 427.828 275.295 427.799C275.871 427.763 276.368 427.824 276.785 427.983C277.204 428.134 277.537 428.265 277.784 428.378L277.956 428.268L276.841 426.513L278.481 425.471L285.705 436.835C286.309 437.784 286.584 438.693 286.53 439.562C286.484 440.433 286.188 441.237 285.641 441.976C285.101 442.716 284.39 443.366 283.508 443.927ZM279.591 437.894C280.272 437.461 280.749 436.939 281.02 436.329C281.292 435.718 281.364 435.043 281.237 434.302C281.11 433.562 280.787 432.784 280.269 431.969C279.763 431.173 279.196 430.547 278.569 430.09C277.943 429.634 277.284 429.382 276.595 429.336C275.906 429.289 275.216 429.485 274.525 429.924C273.806 430.382 273.323 430.945 273.075 431.614C272.832 432.28 272.785 432.996 272.936 433.763C273.091 434.526 273.406 435.281 273.882 436.029C274.37 436.797 274.921 437.399 275.536 437.836C276.152 438.266 276.804 438.497 277.492 438.531C278.182 438.557 278.882 438.345 279.591 437.894ZM293.389 431.829C292.325 432.505 291.257 432.854 290.186 432.875C289.117 432.888 288.105 432.603 287.148 432.019C286.193 431.428 285.356 430.566 284.636 429.435C283.917 428.303 283.489 427.175 283.353 426.05C283.218 424.917 283.369 423.872 283.804 422.915C284.241 421.95 284.958 421.151 285.956 420.517C286.531 420.151 287.16 419.886 287.843 419.721C288.526 419.556 289.235 419.543 289.969 419.682C290.701 419.816 291.428 420.149 292.149 420.68C292.87 421.211 293.559 421.992 294.214 423.023L294.671 423.742L286.156 429.156L285.223 427.689L292.012 423.372C291.616 422.749 291.138 422.272 290.578 421.941C290.022 421.608 289.427 421.444 288.791 421.451C288.161 421.455 287.539 421.651 286.925 422.042C286.249 422.471 285.771 423.011 285.49 423.661C285.211 424.303 285.109 424.973 285.184 425.673C285.259 426.373 285.489 427.028 285.877 427.637L286.498 428.615C287.029 429.449 287.622 430.065 288.279 430.462C288.937 430.852 289.621 431.033 290.331 431.006C291.038 430.974 291.734 430.74 292.42 430.304C292.866 430.02 293.229 429.702 293.509 429.349C293.791 428.988 293.984 428.596 294.086 428.174C294.185 427.748 294.184 427.297 294.084 426.822L296.017 426.24C296.198 426.906 296.219 427.579 296.079 428.26C295.937 428.936 295.641 429.583 295.191 430.199C294.738 430.81 294.137 431.353 293.389 431.829ZM300.399 427.049L293.376 416.001L295.016 414.959L296.113 416.685L296.257 416.594C296.112 415.858 296.193 415.163 296.499 414.511C296.801 413.854 297.312 413.297 298.032 412.84C298.76 412.377 299.472 412.156 300.167 412.179C300.863 412.194 301.535 412.41 302.184 412.826L302.299 412.753C302.219 412.002 302.355 411.28 302.708 410.584C303.057 409.884 303.627 409.283 304.418 408.78C305.406 408.152 306.411 407.947 307.432 408.167C308.45 408.381 309.373 409.138 310.199 410.437L314.899 417.831L313.202 418.91L308.501 411.516C307.983 410.701 307.39 410.26 306.721 410.194C306.053 410.127 305.417 410.286 304.812 410.67C304.036 411.164 303.583 411.781 303.455 412.523C303.324 413.259 303.486 413.984 303.94 414.699L308.512 421.891L306.786 422.989L301.976 415.422C301.577 414.794 301.051 414.418 300.4 414.293C299.745 414.164 299.097 414.304 298.454 414.712C298.013 414.993 297.676 415.372 297.441 415.851C297.212 416.327 297.112 416.848 297.143 417.414C297.175 417.973 297.363 418.523 297.707 419.065L302.097 425.97L300.399 427.049Z" fill="black"/>
<path d="M520.543 472.233L529.907 486.963L528.123 488.097L518.759 473.367L520.543 472.233ZM533.253 484.835L526.23 473.788L527.87 472.745L528.967 474.471L529.111 474.38C528.966 473.644 529.047 472.95 529.352 472.298C529.655 471.641 530.166 471.083 530.885 470.626C531.614 470.163 532.326 469.943 533.021 469.966C533.717 469.981 534.389 470.196 535.037 470.612L535.152 470.539C535.073 469.789 535.209 469.066 535.561 468.371C535.911 467.67 536.481 467.069 537.272 466.566C538.26 465.938 539.264 465.734 540.286 465.953C541.304 466.167 542.226 466.924 543.052 468.224L547.753 475.617L546.055 476.697L541.355 469.303C540.837 468.488 540.243 468.047 539.575 467.98C538.907 467.914 538.27 468.072 537.666 468.457C536.889 468.95 536.437 469.568 536.309 470.309C536.178 471.045 536.339 471.771 536.794 472.485L541.366 479.678L539.64 480.775L534.83 473.209C534.43 472.581 533.905 472.204 533.254 472.08C532.599 471.95 531.951 472.09 531.308 472.499C530.867 472.779 530.529 473.159 530.295 473.637C530.066 474.113 529.966 474.634 529.996 475.201C530.028 475.759 530.216 476.31 530.561 476.852L534.95 483.756L533.253 484.835ZM554.272 471.837C553.572 472.282 552.853 472.554 552.114 472.653C551.373 472.747 550.675 472.649 550.019 472.359C549.36 472.064 548.802 471.557 548.345 470.838C547.943 470.205 547.741 469.613 547.74 469.061C547.737 468.504 547.872 467.981 548.146 467.49C548.42 467 548.773 466.539 549.207 466.109C549.642 465.671 550.094 465.255 550.565 464.862C551.181 464.349 551.684 463.938 552.074 463.63C552.466 463.313 552.722 463.039 552.844 462.807C552.97 462.572 552.947 462.317 552.773 462.044L552.736 461.987C552.285 461.277 551.74 460.849 551.102 460.703C550.469 460.553 549.761 460.727 548.979 461.224C548.169 461.739 547.647 462.32 547.412 462.968C547.177 463.615 547.094 464.2 547.163 464.722L545.186 465.17C545.047 464.316 545.099 463.55 545.34 462.871C545.584 462.184 545.944 461.585 546.42 461.074C546.898 460.555 547.415 460.118 547.971 459.765C548.326 459.539 548.761 459.323 549.276 459.117C549.793 458.903 550.349 458.788 550.945 458.772C551.546 458.754 552.157 458.915 552.777 459.254C553.397 459.594 553.986 460.203 554.543 461.08L559.171 468.359L557.473 469.438L556.522 467.942L556.436 467.997C556.473 468.31 556.445 468.688 556.35 469.132C556.255 469.576 556.046 470.036 555.722 470.511C555.398 470.986 554.914 471.428 554.272 471.837ZM553.561 470.147C554.233 469.721 554.715 469.229 555.007 468.673C555.305 468.113 555.438 467.55 555.408 466.984C555.383 466.414 555.224 465.899 554.931 465.439L553.943 463.885C553.926 464.017 553.818 464.197 553.62 464.424C553.423 464.644 553.183 464.881 552.9 465.135C552.618 465.381 552.341 465.617 552.068 465.845C551.797 466.064 551.578 466.244 551.411 466.384C551.007 466.722 550.654 467.077 550.353 467.451C550.053 467.816 549.867 468.201 549.793 468.604C549.721 469 549.823 469.413 550.097 469.845C550.472 470.435 550.974 470.742 551.602 470.767C552.232 470.784 552.885 470.577 553.561 470.147ZM569.508 467.927C568.688 468.449 567.916 468.791 567.192 468.955C566.472 469.124 565.806 469.163 565.197 469.073C564.595 468.984 564.057 468.821 563.583 468.584L564.332 466.775C564.613 466.878 564.954 466.985 565.353 467.095C565.756 467.209 566.222 467.233 566.751 467.165C567.289 467.1 567.891 466.855 568.557 466.431C569.449 465.864 570.048 465.181 570.354 464.38C570.659 463.58 570.52 462.719 569.934 461.799L568.508 459.555L568.364 459.646C568.367 459.927 568.349 460.289 568.307 460.733C568.268 461.168 568.108 461.637 567.828 462.138C567.549 462.632 567.05 463.107 566.331 463.565C565.439 464.132 564.504 464.43 563.526 464.459C562.553 464.485 561.604 464.226 560.68 463.683C559.76 463.137 558.934 462.288 558.203 461.137C557.483 460.006 557.056 458.894 556.921 457.802C556.782 456.705 556.921 455.701 557.338 454.789C557.752 453.873 558.424 453.119 559.355 452.528C560.074 452.07 560.721 451.828 561.295 451.799C561.871 451.763 562.368 451.824 562.785 451.983C563.204 452.134 563.537 452.265 563.784 452.378L563.956 452.268L562.841 450.513L564.481 449.471L571.705 460.835C572.309 461.784 572.584 462.693 572.53 463.562C572.484 464.433 572.188 465.237 571.641 465.976C571.101 466.716 570.39 467.366 569.508 467.927ZM565.591 461.894C566.272 461.461 566.749 460.939 567.02 460.329C567.292 459.718 567.364 459.043 567.237 458.302C567.11 457.562 566.787 456.784 566.269 455.969C565.763 455.173 565.196 454.547 564.569 454.09C563.943 453.634 563.284 453.382 562.595 453.336C561.906 453.289 561.216 453.485 560.525 453.924C559.806 454.382 559.323 454.945 559.075 455.614C558.832 456.28 558.785 456.996 558.936 457.763C559.091 458.526 559.406 459.281 559.882 460.029C560.37 460.797 560.921 461.399 561.536 461.836C562.152 462.266 562.804 462.497 563.492 462.531C564.182 462.557 564.882 462.345 565.591 461.894ZM579.389 455.829C578.325 456.505 577.257 456.854 576.186 456.875C575.117 456.888 574.105 456.603 573.148 456.019C572.193 455.428 571.356 454.566 570.636 453.435C569.917 452.303 569.489 451.175 569.353 450.05C569.218 448.917 569.369 447.872 569.804 446.915C570.241 445.95 570.958 445.151 571.956 444.517C572.531 444.151 573.16 443.886 573.843 443.721C574.526 443.556 575.235 443.543 575.969 443.682C576.701 443.816 577.428 444.149 578.149 444.68C578.87 445.211 579.559 445.992 580.214 447.023L580.671 447.742L572.156 453.156L571.223 451.689L578.012 447.372C577.616 446.749 577.138 446.272 576.578 445.941C576.022 445.608 575.427 445.444 574.791 445.451C574.161 445.455 573.539 445.651 572.925 446.042C572.249 446.471 571.771 447.011 571.49 447.661C571.211 448.303 571.109 448.973 571.184 449.673C571.259 450.373 571.489 451.028 571.877 451.637L572.498 452.615C573.029 453.449 573.622 454.065 574.279 454.462C574.937 454.852 575.621 455.033 576.331 455.006C577.038 454.974 577.734 454.74 578.42 454.304C578.866 454.02 579.229 453.702 579.509 453.349C579.791 452.988 579.984 452.596 580.086 452.174C580.185 451.748 580.184 451.297 580.084 450.822L582.017 450.24C582.198 450.906 582.219 451.579 582.079 452.26C581.937 452.936 581.641 453.583 581.191 454.199C580.738 454.81 580.137 455.353 579.389 455.829ZM586.399 451.049L579.376 440.001L581.016 438.959L582.113 440.685L582.257 440.594C582.112 439.858 582.193 439.163 582.499 438.511C582.801 437.854 583.312 437.297 584.032 436.84C584.76 436.377 585.472 436.156 586.167 436.179C586.863 436.194 587.535 436.41 588.184 436.826L588.299 436.753C588.219 436.002 588.355 435.28 588.708 434.584C589.057 433.884 589.627 433.283 590.418 432.78C591.406 432.152 592.411 431.947 593.432 432.167C594.45 432.381 595.373 433.138 596.199 434.437L600.899 441.831L599.202 442.91L594.501 435.516C593.983 434.701 593.39 434.26 592.721 434.194C592.053 434.127 591.417 434.286 590.812 434.67C590.036 435.164 589.583 435.781 589.455 436.523C589.324 437.259 589.486 437.984 589.94 438.699L594.512 445.891L592.786 446.989L587.976 439.422C587.577 438.794 587.051 438.418 586.4 438.293C585.745 438.164 585.097 438.304 584.454 438.712C584.013 438.993 583.676 439.372 583.441 439.851C583.212 440.327 583.112 440.848 583.143 441.414C583.175 441.973 583.363 442.523 583.707 443.065L588.097 449.97L586.399 451.049Z" fill="black"/>
<path d="M188.543 179.233L197.907 193.963L196.123 195.097L186.759 180.367L188.543 179.233ZM201.253 191.835L194.23 180.788L195.87 179.745L196.967 181.472L197.111 181.38C196.966 180.644 197.047 179.95 197.352 179.298C197.655 178.641 198.166 178.083 198.885 177.626C199.614 177.163 200.326 176.943 201.021 176.966C201.717 176.981 202.389 177.196 203.037 177.612L203.152 177.539C203.073 176.789 203.209 176.066 203.561 175.371C203.911 174.67 204.481 174.069 205.272 173.566C206.26 172.938 207.264 172.734 208.286 172.953C209.304 173.167 210.226 173.924 211.052 175.224L215.753 182.617L214.055 183.697L209.355 176.303C208.837 175.488 208.243 175.047 207.575 174.98C206.907 174.914 206.27 175.072 205.666 175.457C204.889 175.95 204.437 176.568 204.309 177.309C204.178 178.045 204.339 178.771 204.794 179.485L209.366 186.678L207.64 187.775L202.83 180.209C202.43 179.581 201.905 179.204 201.254 179.08C200.599 178.95 199.951 179.09 199.308 179.499C198.867 179.779 198.529 180.159 198.295 180.637C198.066 181.113 197.966 181.634 197.996 182.201C198.028 182.76 198.216 183.31 198.561 183.852L202.95 190.756L201.253 191.835ZM222.272 178.837C221.572 179.282 220.853 179.554 220.114 179.653C219.373 179.747 218.675 179.649 218.019 179.359C217.36 179.064 216.802 178.557 216.345 177.838C215.943 177.205 215.741 176.613 215.74 176.061C215.737 175.504 215.872 174.981 216.146 174.49C216.42 174 216.773 173.539 217.207 173.109C217.642 172.671 218.094 172.255 218.565 171.862C219.181 171.349 219.684 170.938 220.074 170.63C220.466 170.313 220.722 170.039 220.844 169.807C220.97 169.572 220.947 169.317 220.773 169.044L220.736 168.987C220.285 168.277 219.74 167.849 219.102 167.703C218.469 167.553 217.761 167.727 216.979 168.224C216.169 168.739 215.647 169.32 215.412 169.968C215.177 170.615 215.094 171.2 215.163 171.722L213.186 172.17C213.047 171.316 213.099 170.55 213.34 169.871C213.584 169.184 213.944 168.585 214.42 168.074C214.898 167.555 215.415 167.118 215.971 166.765C216.326 166.539 216.761 166.323 217.276 166.117C217.793 165.903 218.349 165.788 218.945 165.772C219.546 165.754 220.157 165.915 220.777 166.254C221.397 166.594 221.986 167.203 222.543 168.08L227.171 175.359L225.473 176.438L224.522 174.942L224.436 174.997C224.473 175.31 224.445 175.688 224.35 176.132C224.255 176.576 224.046 177.036 223.722 177.511C223.398 177.986 222.914 178.428 222.272 178.837ZM221.561 177.147C222.233 176.721 222.715 176.229 223.007 175.673C223.305 175.113 223.438 174.55 223.408 173.984C223.383 173.414 223.224 172.899 222.931 172.439L221.943 170.885C221.926 171.017 221.818 171.197 221.62 171.425C221.423 171.644 221.183 171.881 220.9 172.135C220.618 172.381 220.341 172.618 220.068 172.845C219.797 173.064 219.578 173.244 219.411 173.384C219.007 173.722 218.654 174.077 218.353 174.451C218.053 174.816 217.867 175.201 217.793 175.604C217.721 176 217.823 176.414 218.097 176.845C218.472 177.435 218.974 177.742 219.602 177.767C220.232 177.784 220.885 177.577 221.561 177.147ZM237.508 174.927C236.688 175.449 235.916 175.791 235.192 175.955C234.472 176.124 233.806 176.163 233.197 176.073C232.595 175.984 232.057 175.821 231.583 175.584L232.332 173.775C232.613 173.878 232.954 173.985 233.353 174.095C233.756 174.209 234.222 174.233 234.751 174.165C235.289 174.1 235.891 173.855 236.557 173.431C237.449 172.864 238.048 172.181 238.354 171.38C238.659 170.58 238.52 169.719 237.934 168.799L236.508 166.555L236.364 166.646C236.367 166.927 236.349 167.289 236.307 167.733C236.268 168.168 236.108 168.637 235.828 169.138C235.549 169.632 235.05 170.107 234.331 170.565C233.439 171.132 232.504 171.43 231.526 171.459C230.553 171.485 229.604 171.226 228.68 170.683C227.76 170.137 226.934 169.288 226.203 168.137C225.483 167.006 225.056 165.894 224.921 164.802C224.782 163.705 224.921 162.701 225.338 161.789C225.752 160.873 226.424 160.119 227.355 159.528C228.074 159.07 228.721 158.828 229.295 158.799C229.871 158.763 230.368 158.824 230.785 158.983C231.204 159.134 231.537 159.265 231.784 159.378L231.956 159.268L230.841 157.513L232.481 156.471L239.705 167.835C240.309 168.784 240.584 169.693 240.53 170.562C240.484 171.433 240.188 172.237 239.641 172.976C239.101 173.716 238.39 174.366 237.508 174.927ZM233.591 168.894C234.272 168.461 234.749 167.939 235.02 167.329C235.292 166.718 235.364 166.043 235.237 165.302C235.11 164.562 234.787 163.784 234.269 162.969C233.763 162.173 233.196 161.547 232.569 161.09C231.943 160.634 231.284 160.382 230.595 160.336C229.906 160.289 229.216 160.485 228.525 160.924C227.806 161.382 227.323 161.945 227.075 162.614C226.832 163.28 226.785 163.997 226.936 164.763C227.091 165.526 227.406 166.281 227.882 167.029C228.37 167.797 228.921 168.399 229.536 168.836C230.152 169.266 230.804 169.497 231.492 169.531C232.182 169.557 232.882 169.345 233.591 168.894ZM247.389 162.829C246.325 163.505 245.257 163.854 244.186 163.875C243.117 163.888 242.105 163.603 241.148 163.019C240.193 162.428 239.356 161.566 238.636 160.435C237.917 159.303 237.489 158.175 237.353 157.05C237.218 155.917 237.369 154.872 237.804 153.915C238.241 152.95 238.958 152.151 239.956 151.517C240.531 151.151 241.16 150.886 241.843 150.721C242.526 150.556 243.235 150.543 243.969 150.682C244.701 150.816 245.428 151.149 246.149 151.68C246.87 152.211 247.559 152.992 248.214 154.023L248.671 154.742L240.156 160.156L239.223 158.689L246.012 154.372C245.616 153.749 245.138 153.272 244.578 152.941C244.022 152.608 243.427 152.444 242.791 152.451C242.161 152.455 241.539 152.651 240.925 153.042C240.249 153.471 239.771 154.011 239.49 154.661C239.211 155.303 239.109 155.973 239.184 156.673C239.259 157.373 239.489 158.028 239.877 158.637L240.498 159.615C241.029 160.449 241.622 161.065 242.279 161.462C242.937 161.852 243.621 162.033 244.331 162.006C245.038 161.974 245.734 161.74 246.42 161.304C246.866 161.02 247.229 160.702 247.509 160.349C247.791 159.988 247.984 159.596 248.086 159.174C248.185 158.748 248.184 158.297 248.084 157.822L250.017 157.24C250.198 157.906 250.219 158.579 250.079 159.26C249.937 159.936 249.641 160.583 249.191 161.199C248.738 161.81 248.137 162.353 247.389 162.829ZM254.399 158.049L247.376 147.001L249.016 145.959L250.113 147.685L250.257 147.594C250.112 146.858 250.193 146.163 250.499 145.511C250.801 144.854 251.312 144.297 252.032 143.84C252.76 143.377 253.472 143.156 254.167 143.179C254.863 143.194 255.535 143.41 256.184 143.826L256.299 143.753C256.219 143.002 256.355 142.28 256.708 141.584C257.057 140.884 257.627 140.283 258.418 139.78C259.406 139.152 260.411 138.947 261.432 139.167C262.45 139.381 263.373 140.138 264.199 141.437L268.899 148.831L267.202 149.91L262.501 142.516C261.983 141.701 261.39 141.26 260.721 141.194C260.053 141.127 259.417 141.286 258.812 141.67C258.036 142.164 257.583 142.782 257.455 143.523C257.324 144.259 257.486 144.985 257.94 145.699L262.512 152.891L260.786 153.989L255.976 146.422C255.577 145.794 255.051 145.418 254.4 145.293C253.745 145.164 253.097 145.304 252.454 145.712C252.013 145.993 251.676 146.372 251.441 146.851C251.212 147.327 251.112 147.848 251.143 148.414C251.175 148.973 251.363 149.523 251.707 150.065L256.097 156.97L254.399 158.049Z" fill="black"/>
<path d="M501.543 192.233L510.907 206.963L509.123 208.097L499.759 193.367L501.543 192.233ZM514.253 204.835L507.23 193.788L508.87 192.745L509.967 194.472L510.111 194.38C509.966 193.644 510.047 192.95 510.352 192.298C510.655 191.641 511.166 191.083 511.885 190.626C512.614 190.163 513.326 189.943 514.021 189.966C514.717 189.981 515.389 190.196 516.037 190.612L516.152 190.539C516.073 189.789 516.209 189.066 516.561 188.371C516.911 187.67 517.481 187.069 518.272 186.566C519.26 185.938 520.264 185.734 521.286 185.953C522.304 186.167 523.226 186.924 524.052 188.224L528.753 195.617L527.055 196.697L522.355 189.303C521.837 188.488 521.243 188.047 520.575 187.98C519.907 187.914 519.27 188.072 518.666 188.457C517.889 188.95 517.437 189.568 517.309 190.309C517.178 191.045 517.339 191.771 517.794 192.485L522.366 199.678L520.64 200.775L515.83 193.209C515.43 192.581 514.905 192.204 514.254 192.08C513.599 191.95 512.951 192.09 512.308 192.499C511.867 192.779 511.529 193.159 511.295 193.637C511.066 194.113 510.966 194.634 510.996 195.201C511.028 195.76 511.216 196.31 511.561 196.852L515.95 203.756L514.253 204.835ZM535.272 191.837C534.572 192.282 533.853 192.554 533.114 192.653C532.373 192.747 531.675 192.649 531.019 192.359C530.36 192.064 529.802 191.557 529.345 190.838C528.943 190.205 528.741 189.613 528.74 189.061C528.737 188.504 528.872 187.981 529.146 187.49C529.42 187 529.773 186.539 530.207 186.109C530.642 185.671 531.094 185.255 531.565 184.862C532.181 184.349 532.684 183.938 533.074 183.63C533.466 183.313 533.722 183.039 533.844 182.807C533.97 182.572 533.947 182.317 533.773 182.044L533.736 181.987C533.285 181.277 532.74 180.849 532.102 180.703C531.469 180.553 530.761 180.727 529.979 181.224C529.169 181.739 528.647 182.32 528.412 182.968C528.177 183.615 528.094 184.2 528.163 184.722L526.186 185.17C526.047 184.316 526.099 183.55 526.34 182.871C526.584 182.184 526.944 181.585 527.42 181.074C527.898 180.555 528.415 180.118 528.971 179.765C529.326 179.539 529.761 179.323 530.276 179.117C530.793 178.903 531.349 178.788 531.945 178.772C532.546 178.754 533.157 178.915 533.777 179.254C534.397 179.594 534.986 180.203 535.543 181.08L540.171 188.359L538.473 189.438L537.522 187.942L537.436 187.997C537.473 188.31 537.445 188.688 537.35 189.132C537.255 189.576 537.046 190.036 536.722 190.511C536.398 190.986 535.914 191.428 535.272 191.837ZM534.561 190.147C535.233 189.721 535.715 189.229 536.007 188.673C536.305 188.113 536.438 187.55 536.408 186.984C536.383 186.414 536.224 185.899 535.931 185.439L534.943 183.885C534.926 184.017 534.818 184.197 534.62 184.425C534.423 184.644 534.183 184.881 533.9 185.135C533.618 185.381 533.341 185.618 533.068 185.845C532.797 186.064 532.578 186.244 532.411 186.384C532.007 186.722 531.654 187.077 531.353 187.451C531.053 187.816 530.867 188.201 530.793 188.604C530.721 189 530.823 189.414 531.097 189.845C531.472 190.435 531.974 190.742 532.602 190.767C533.232 190.784 533.885 190.577 534.561 190.147ZM550.508 187.927C549.688 188.449 548.916 188.791 548.192 188.955C547.472 189.124 546.806 189.163 546.197 189.073C545.595 188.984 545.057 188.821 544.583 188.584L545.332 186.775C545.613 186.878 545.954 186.985 546.353 187.095C546.756 187.209 547.222 187.233 547.751 187.165C548.289 187.1 548.891 186.855 549.557 186.431C550.449 185.864 551.048 185.181 551.354 184.38C551.659 183.58 551.52 182.719 550.934 181.799L549.508 179.555L549.364 179.646C549.367 179.927 549.349 180.289 549.307 180.733C549.268 181.168 549.108 181.637 548.828 182.138C548.549 182.632 548.05 183.107 547.331 183.565C546.439 184.132 545.504 184.43 544.526 184.459C543.553 184.485 542.604 184.226 541.68 183.683C540.76 183.137 539.934 182.288 539.203 181.137C538.483 180.006 538.056 178.894 537.921 177.802C537.782 176.705 537.921 175.701 538.338 174.789C538.752 173.873 539.424 173.119 540.355 172.528C541.074 172.07 541.721 171.828 542.295 171.799C542.871 171.763 543.368 171.824 543.785 171.983C544.204 172.134 544.537 172.265 544.784 172.378L544.956 172.268L543.841 170.513L545.481 169.471L552.705 180.835C553.309 181.784 553.584 182.693 553.53 183.562C553.484 184.433 553.188 185.237 552.641 185.976C552.101 186.716 551.39 187.366 550.508 187.927ZM546.591 181.894C547.272 181.461 547.749 180.939 548.02 180.329C548.292 179.718 548.364 179.043 548.237 178.302C548.11 177.562 547.787 176.784 547.269 175.969C546.763 175.173 546.196 174.547 545.569 174.09C544.943 173.634 544.284 173.382 543.595 173.336C542.906 173.289 542.216 173.485 541.525 173.924C540.806 174.382 540.323 174.945 540.075 175.614C539.832 176.28 539.785 176.997 539.936 177.763C540.091 178.526 540.406 179.281 540.882 180.029C541.37 180.797 541.921 181.399 542.536 181.836C543.152 182.266 543.804 182.497 544.492 182.531C545.182 182.557 545.882 182.345 546.591 181.894ZM560.389 175.829C559.325 176.505 558.257 176.854 557.186 176.875C556.117 176.888 555.105 176.603 554.148 176.019C553.193 175.428 552.356 174.566 551.636 173.435C550.917 172.303 550.489 171.175 550.353 170.05C550.218 168.917 550.369 167.872 550.804 166.915C551.241 165.95 551.958 165.151 552.956 164.517C553.531 164.151 554.16 163.886 554.843 163.721C555.526 163.556 556.235 163.543 556.969 163.682C557.701 163.816 558.428 164.149 559.149 164.68C559.87 165.211 560.559 165.992 561.214 167.023L561.671 167.742L553.156 173.156L552.223 171.689L559.012 167.372C558.616 166.749 558.138 166.272 557.578 165.941C557.022 165.608 556.427 165.444 555.791 165.451C555.161 165.455 554.539 165.651 553.925 166.042C553.249 166.471 552.771 167.011 552.49 167.661C552.211 168.303 552.109 168.973 552.184 169.673C552.259 170.373 552.489 171.028 552.877 171.637L553.498 172.615C554.029 173.449 554.622 174.065 555.279 174.462C555.937 174.852 556.621 175.033 557.331 175.006C558.038 174.974 558.734 174.74 559.42 174.304C559.866 174.02 560.229 173.702 560.509 173.349C560.791 172.988 560.984 172.596 561.086 172.174C561.185 171.748 561.184 171.297 561.084 170.822L563.017 170.24C563.198 170.906 563.219 171.579 563.079 172.26C562.937 172.936 562.641 173.583 562.191 174.199C561.738 174.81 561.137 175.353 560.389 175.829ZM567.399 171.049L560.376 160.001L562.016 158.959L563.113 160.685L563.257 160.594C563.112 159.858 563.193 159.163 563.499 158.511C563.801 157.854 564.312 157.297 565.032 156.84C565.76 156.377 566.472 156.156 567.167 156.179C567.863 156.194 568.535 156.41 569.184 156.826L569.299 156.753C569.219 156.002 569.355 155.28 569.708 154.584C570.057 153.884 570.627 153.283 571.418 152.78C572.406 152.152 573.411 151.947 574.432 152.167C575.45 152.381 576.373 153.138 577.199 154.437L581.899 161.831L580.202 162.91L575.501 155.516C574.983 154.701 574.39 154.26 573.721 154.194C573.053 154.127 572.417 154.286 571.812 154.67C571.036 155.164 570.583 155.782 570.455 156.523C570.324 157.259 570.486 157.985 570.94 158.699L575.512 165.891L573.786 166.989L568.976 159.422C568.577 158.794 568.051 158.418 567.4 158.293C566.745 158.164 566.097 158.304 565.454 158.712C565.013 158.993 564.676 159.372 564.441 159.851C564.212 160.327 564.112 160.848 564.143 161.414C564.175 161.973 564.363 162.523 564.707 163.065L569.097 169.97L567.399 171.049Z" fill="black"/>
<path d="M873.543 449.233L882.907 463.963L881.123 465.097L871.759 450.367L873.543 449.233ZM886.253 461.835L879.23 450.788L880.87 449.745L881.967 451.471L882.111 451.38C881.966 450.644 882.047 449.95 882.352 449.298C882.655 448.641 883.166 448.083 883.885 447.626C884.614 447.163 885.326 446.943 886.021 446.966C886.717 446.981 887.389 447.196 888.037 447.612L888.152 447.539C888.073 446.789 888.209 446.066 888.561 445.371C888.911 444.67 889.481 444.069 890.272 443.566C891.26 442.938 892.264 442.734 893.286 442.953C894.304 443.167 895.226 443.924 896.052 445.224L900.753 452.617L899.055 453.697L894.355 446.303C893.837 445.488 893.243 445.047 892.575 444.98C891.907 444.914 891.27 445.072 890.666 445.457C889.889 445.95 889.437 446.568 889.309 447.309C889.178 448.045 889.339 448.771 889.794 449.485L894.366 456.678L892.64 457.775L887.83 450.209C887.43 449.581 886.905 449.204 886.254 449.08C885.599 448.95 884.951 449.09 884.308 449.499C883.867 449.779 883.529 450.159 883.295 450.637C883.066 451.113 882.966 451.634 882.996 452.201C883.028 452.759 883.216 453.31 883.561 453.852L887.95 460.756L886.253 461.835ZM907.272 448.837C906.572 449.282 905.853 449.554 905.114 449.653C904.373 449.747 903.675 449.649 903.019 449.359C902.36 449.064 901.802 448.557 901.345 447.838C900.943 447.205 900.741 446.613 900.74 446.061C900.737 445.504 900.872 444.981 901.146 444.49C901.42 444 901.773 443.539 902.207 443.109C902.642 442.671 903.094 442.255 903.565 441.862C904.181 441.349 904.684 440.938 905.074 440.63C905.466 440.313 905.722 440.039 905.844 439.807C905.97 439.572 905.947 439.317 905.773 439.044L905.736 438.987C905.285 438.277 904.74 437.849 904.102 437.703C903.469 437.553 902.761 437.727 901.979 438.224C901.169 438.739 900.647 439.32 900.412 439.968C900.177 440.615 900.094 441.2 900.163 441.722L898.186 442.17C898.047 441.316 898.099 440.55 898.34 439.871C898.584 439.184 898.944 438.585 899.42 438.074C899.898 437.555 900.415 437.118 900.971 436.765C901.326 436.539 901.761 436.323 902.276 436.117C902.793 435.903 903.349 435.788 903.945 435.772C904.546 435.754 905.157 435.915 905.777 436.254C906.397 436.594 906.986 437.203 907.543 438.08L912.171 445.359L910.473 446.438L909.522 444.942L909.436 444.997C909.473 445.31 909.445 445.688 909.35 446.132C909.255 446.576 909.046 447.036 908.722 447.511C908.398 447.986 907.914 448.428 907.272 448.837ZM906.561 447.147C907.233 446.721 907.715 446.229 908.007 445.673C908.305 445.113 908.438 444.55 908.408 443.984C908.383 443.414 908.224 442.899 907.931 442.439L906.943 440.885C906.926 441.017 906.818 441.197 906.62 441.424C906.423 441.644 906.183 441.881 905.9 442.135C905.618 442.381 905.341 442.617 905.068 442.845C904.797 443.064 904.578 443.244 904.411 443.384C904.007 443.722 903.654 444.077 903.353 444.451C903.053 444.816 902.867 445.201 902.793 445.604C902.721 446 902.823 446.413 903.097 446.845C903.472 447.435 903.974 447.742 904.602 447.767C905.232 447.784 905.885 447.577 906.561 447.147ZM922.508 444.927C921.688 445.449 920.916 445.791 920.192 445.955C919.472 446.124 918.806 446.163 918.197 446.073C917.595 445.984 917.057 445.821 916.583 445.584L917.332 443.775C917.613 443.878 917.954 443.985 918.353 444.095C918.756 444.209 919.222 444.233 919.751 444.165C920.289 444.1 920.891 443.855 921.557 443.431C922.449 442.864 923.048 442.181 923.354 441.38C923.659 440.58 923.52 439.719 922.934 438.799L921.508 436.555L921.364 436.646C921.367 436.927 921.349 437.289 921.307 437.733C921.268 438.168 921.108 438.637 920.828 439.138C920.549 439.632 920.05 440.107 919.331 440.565C918.439 441.132 917.504 441.43 916.526 441.459C915.553 441.485 914.604 441.226 913.68 440.683C912.76 440.137 911.934 439.288 911.203 438.137C910.483 437.006 910.056 435.894 909.921 434.802C909.782 433.705 909.921 432.701 910.338 431.789C910.752 430.873 911.424 430.119 912.355 429.528C913.074 429.07 913.721 428.828 914.295 428.799C914.871 428.763 915.368 428.824 915.785 428.983C916.204 429.134 916.537 429.265 916.784 429.378L916.956 429.268L915.841 427.513L917.481 426.471L924.705 437.835C925.309 438.784 925.584 439.693 925.53 440.562C925.484 441.433 925.188 442.237 924.641 442.976C924.101 443.716 923.39 444.366 922.508 444.927ZM918.591 438.894C919.272 438.461 919.749 437.939 920.02 437.329C920.292 436.718 920.364 436.043 920.237 435.302C920.11 434.562 919.787 433.784 919.269 432.969C918.763 432.173 918.196 431.547 917.569 431.09C916.943 430.634 916.284 430.382 915.595 430.336C914.906 430.289 914.216 430.485 913.525 430.924C912.806 431.382 912.323 431.945 912.075 432.614C911.832 433.28 911.785 433.996 911.936 434.763C912.091 435.526 912.406 436.281 912.882 437.029C913.37 437.797 913.921 438.399 914.536 438.836C915.152 439.266 915.804 439.497 916.492 439.531C917.182 439.557 917.882 439.345 918.591 438.894ZM932.389 432.829C931.325 433.505 930.257 433.854 929.186 433.875C928.117 433.888 927.105 433.603 926.148 433.019C925.193 432.428 924.356 431.566 923.636 430.435C922.917 429.303 922.489 428.175 922.353 427.05C922.218 425.917 922.369 424.872 922.804 423.915C923.241 422.95 923.958 422.151 924.956 421.517C925.531 421.151 926.16 420.886 926.843 420.721C927.526 420.556 928.235 420.543 928.969 420.682C929.701 420.816 930.428 421.149 931.149 421.68C931.87 422.211 932.559 422.992 933.214 424.023L933.671 424.742L925.156 430.156L924.223 428.689L931.012 424.372C930.616 423.749 930.138 423.272 929.578 422.941C929.022 422.608 928.427 422.444 927.791 422.451C927.161 422.455 926.539 422.651 925.925 423.042C925.249 423.471 924.771 424.011 924.49 424.661C924.211 425.303 924.109 425.973 924.184 426.673C924.259 427.373 924.489 428.028 924.877 428.637L925.498 429.615C926.029 430.449 926.622 431.065 927.279 431.462C927.937 431.852 928.621 432.033 929.331 432.006C930.038 431.974 930.734 431.74 931.42 431.304C931.866 431.02 932.229 430.702 932.509 430.349C932.791 429.988 932.984 429.596 933.086 429.174C933.185 428.748 933.184 428.297 933.084 427.822L935.017 427.24C935.198 427.906 935.219 428.579 935.079 429.26C934.937 429.936 934.641 430.583 934.191 431.199C933.738 431.81 933.137 432.353 932.389 432.829ZM939.399 428.049L932.376 417.001L934.016 415.959L935.113 417.685L935.257 417.594C935.112 416.858 935.193 416.163 935.499 415.511C935.801 414.854 936.312 414.297 937.032 413.84C937.76 413.377 938.472 413.156 939.167 413.179C939.863 413.194 940.535 413.41 941.184 413.826L941.299 413.753C941.219 413.002 941.355 412.28 941.708 411.584C942.057 410.884 942.627 410.283 943.418 409.78C944.406 409.152 945.411 408.947 946.432 409.167C947.45 409.381 948.373 410.138 949.199 411.437L953.899 418.831L952.202 419.91L947.501 412.516C946.983 411.701 946.39 411.26 945.721 411.194C945.053 411.127 944.417 411.286 943.812 411.67C943.036 412.164 942.583 412.781 942.455 413.523C942.324 414.259 942.486 414.984 942.94 415.699L947.512 422.891L945.786 423.989L940.976 416.422C940.577 415.794 940.051 415.418 939.4 415.293C938.745 415.164 938.097 415.304 937.454 415.712C937.013 415.993 936.676 416.372 936.441 416.851C936.212 417.327 936.112 417.848 936.143 418.414C936.175 418.973 936.363 419.523 936.707 420.065L941.097 426.97L939.399 428.049Z" fill="black"/>
<path d="M1159.54 473.233L1168.91 487.963L1167.12 489.097L1157.76 474.367L1159.54 473.233ZM1172.25 485.835L1165.23 474.788L1166.87 473.745L1167.97 475.471L1168.11 475.38C1167.97 474.644 1168.05 473.95 1168.35 473.298C1168.66 472.641 1169.17 472.083 1169.89 471.626C1170.61 471.163 1171.33 470.943 1172.02 470.966C1172.72 470.981 1173.39 471.196 1174.04 471.612L1174.15 471.539C1174.07 470.789 1174.21 470.066 1174.56 469.371C1174.91 468.67 1175.48 468.069 1176.27 467.566C1177.26 466.938 1178.26 466.734 1179.29 466.953C1180.3 467.167 1181.23 467.924 1182.05 469.224L1186.75 476.617L1185.06 477.697L1180.36 470.303C1179.84 469.488 1179.24 469.047 1178.58 468.98C1177.91 468.914 1177.27 469.072 1176.67 469.457C1175.89 469.95 1175.44 470.568 1175.31 471.309C1175.18 472.045 1175.34 472.771 1175.79 473.485L1180.37 480.678L1178.64 481.775L1173.83 474.209C1173.43 473.581 1172.9 473.204 1172.25 473.08C1171.6 472.95 1170.95 473.09 1170.31 473.499C1169.87 473.779 1169.53 474.159 1169.3 474.637C1169.07 475.113 1168.97 475.634 1169 476.201C1169.03 476.759 1169.22 477.31 1169.56 477.852L1173.95 484.756L1172.25 485.835ZM1193.27 472.837C1192.57 473.282 1191.85 473.554 1191.11 473.653C1190.37 473.747 1189.67 473.649 1189.02 473.359C1188.36 473.064 1187.8 472.557 1187.34 471.838C1186.94 471.205 1186.74 470.613 1186.74 470.061C1186.74 469.504 1186.87 468.981 1187.15 468.49C1187.42 468 1187.77 467.539 1188.21 467.109C1188.64 466.671 1189.09 466.255 1189.56 465.862C1190.18 465.349 1190.68 464.938 1191.07 464.63C1191.47 464.313 1191.72 464.039 1191.84 463.807C1191.97 463.572 1191.95 463.317 1191.77 463.044L1191.74 462.987C1191.29 462.277 1190.74 461.849 1190.1 461.703C1189.47 461.553 1188.76 461.727 1187.98 462.224C1187.17 462.739 1186.65 463.32 1186.41 463.968C1186.18 464.615 1186.09 465.2 1186.16 465.722L1184.19 466.17C1184.05 465.316 1184.1 464.55 1184.34 463.871C1184.58 463.184 1184.94 462.585 1185.42 462.074C1185.9 461.555 1186.41 461.118 1186.97 460.765C1187.33 460.539 1187.76 460.323 1188.28 460.117C1188.79 459.903 1189.35 459.788 1189.95 459.772C1190.55 459.754 1191.16 459.915 1191.78 460.254C1192.4 460.594 1192.99 461.203 1193.54 462.08L1198.17 469.359L1196.47 470.438L1195.52 468.942L1195.44 468.997C1195.47 469.31 1195.44 469.688 1195.35 470.132C1195.26 470.576 1195.05 471.036 1194.72 471.511C1194.4 471.986 1193.91 472.428 1193.27 472.837ZM1192.56 471.147C1193.23 470.721 1193.71 470.229 1194.01 469.673C1194.3 469.113 1194.44 468.55 1194.41 467.984C1194.38 467.414 1194.22 466.899 1193.93 466.439L1192.94 464.885C1192.93 465.017 1192.82 465.197 1192.62 465.424C1192.42 465.644 1192.18 465.881 1191.9 466.135C1191.62 466.381 1191.34 466.617 1191.07 466.845C1190.8 467.064 1190.58 467.244 1190.41 467.384C1190.01 467.722 1189.65 468.077 1189.35 468.451C1189.05 468.816 1188.87 469.201 1188.79 469.604C1188.72 470 1188.82 470.413 1189.1 470.845C1189.47 471.435 1189.97 471.742 1190.6 471.767C1191.23 471.784 1191.89 471.577 1192.56 471.147ZM1208.51 468.927C1207.69 469.449 1206.92 469.791 1206.19 469.955C1205.47 470.124 1204.81 470.163 1204.2 470.073C1203.59 469.984 1203.06 469.821 1202.58 469.584L1203.33 467.775C1203.61 467.878 1203.95 467.985 1204.35 468.095C1204.76 468.209 1205.22 468.233 1205.75 468.165C1206.29 468.1 1206.89 467.855 1207.56 467.431C1208.45 466.864 1209.05 466.181 1209.35 465.38C1209.66 464.58 1209.52 463.719 1208.93 462.799L1207.51 460.555L1207.36 460.646C1207.37 460.927 1207.35 461.289 1207.31 461.733C1207.27 462.168 1207.11 462.637 1206.83 463.138C1206.55 463.632 1206.05 464.107 1205.33 464.565C1204.44 465.132 1203.5 465.43 1202.53 465.459C1201.55 465.485 1200.6 465.226 1199.68 464.683C1198.76 464.137 1197.93 463.288 1197.2 462.137C1196.48 461.006 1196.06 459.894 1195.92 458.802C1195.78 457.705 1195.92 456.701 1196.34 455.789C1196.75 454.873 1197.42 454.119 1198.35 453.528C1199.07 453.07 1199.72 452.828 1200.29 452.799C1200.87 452.763 1201.37 452.824 1201.79 452.983C1202.2 453.134 1202.54 453.265 1202.78 453.378L1202.96 453.268L1201.84 451.513L1203.48 450.471L1210.71 461.835C1211.31 462.784 1211.58 463.693 1211.53 464.562C1211.48 465.433 1211.19 466.237 1210.64 466.976C1210.1 467.716 1209.39 468.366 1208.51 468.927ZM1204.59 462.894C1205.27 462.461 1205.75 461.939 1206.02 461.329C1206.29 460.718 1206.36 460.043 1206.24 459.302C1206.11 458.562 1205.79 457.784 1205.27 456.969C1204.76 456.173 1204.2 455.547 1203.57 455.09C1202.94 454.634 1202.28 454.382 1201.6 454.336C1200.91 454.289 1200.22 454.485 1199.53 454.924C1198.81 455.382 1198.32 455.945 1198.07 456.614C1197.83 457.28 1197.79 457.996 1197.94 458.763C1198.09 459.526 1198.41 460.281 1198.88 461.029C1199.37 461.797 1199.92 462.399 1200.54 462.836C1201.15 463.266 1201.8 463.497 1202.49 463.531C1203.18 463.557 1203.88 463.345 1204.59 462.894ZM1218.39 456.829C1217.32 457.505 1216.26 457.854 1215.19 457.875C1214.12 457.888 1213.1 457.603 1212.15 457.019C1211.19 456.428 1210.36 455.566 1209.64 454.435C1208.92 453.303 1208.49 452.175 1208.35 451.05C1208.22 449.917 1208.37 448.872 1208.8 447.915C1209.24 446.95 1209.96 446.151 1210.96 445.517C1211.53 445.151 1212.16 444.886 1212.84 444.721C1213.53 444.556 1214.23 444.543 1214.97 444.682C1215.7 444.816 1216.43 445.149 1217.15 445.68C1217.87 446.211 1218.56 446.992 1219.21 448.023L1219.67 448.742L1211.16 454.156L1210.22 452.689L1217.01 448.372C1216.62 447.749 1216.14 447.272 1215.58 446.941C1215.02 446.608 1214.43 446.444 1213.79 446.451C1213.16 446.455 1212.54 446.651 1211.92 447.042C1211.25 447.471 1210.77 448.011 1210.49 448.661C1210.21 449.303 1210.11 449.973 1210.18 450.673C1210.26 451.373 1210.49 452.028 1210.88 452.637L1211.5 453.615C1212.03 454.449 1212.62 455.065 1213.28 455.462C1213.94 455.852 1214.62 456.033 1215.33 456.006C1216.04 455.974 1216.73 455.74 1217.42 455.304C1217.87 455.02 1218.23 454.702 1218.51 454.349C1218.79 453.988 1218.98 453.596 1219.09 453.174C1219.18 452.748 1219.18 452.297 1219.08 451.822L1221.02 451.24C1221.2 451.906 1221.22 452.579 1221.08 453.26C1220.94 453.936 1220.64 454.583 1220.19 455.199C1219.74 455.81 1219.14 456.353 1218.39 456.829ZM1225.4 452.049L1218.38 441.001L1220.02 439.959L1221.11 441.685L1221.26 441.594C1221.11 440.858 1221.19 440.163 1221.5 439.511C1221.8 438.854 1222.31 438.297 1223.03 437.84C1223.76 437.377 1224.47 437.156 1225.17 437.179C1225.86 437.194 1226.54 437.41 1227.18 437.826L1227.3 437.753C1227.22 437.002 1227.36 436.28 1227.71 435.584C1228.06 434.884 1228.63 434.283 1229.42 433.78C1230.41 433.152 1231.41 432.947 1232.43 433.167C1233.45 433.381 1234.37 434.138 1235.2 435.437L1239.9 442.831L1238.2 443.91L1233.5 436.516C1232.98 435.701 1232.39 435.26 1231.72 435.194C1231.05 435.127 1230.42 435.286 1229.81 435.67C1229.04 436.164 1228.58 436.781 1228.46 437.523C1228.32 438.259 1228.49 438.984 1228.94 439.699L1233.51 446.891L1231.79 447.989L1226.98 440.422C1226.58 439.794 1226.05 439.418 1225.4 439.293C1224.75 439.164 1224.1 439.304 1223.45 439.712C1223.01 439.993 1222.68 440.372 1222.44 440.851C1222.21 441.327 1222.11 441.848 1222.14 442.414C1222.17 442.973 1222.36 443.523 1222.71 444.065L1227.1 450.97L1225.4 452.049Z" fill="black"/>
<path d="M827.543 180.233L836.907 194.963L835.123 196.097L825.759 181.367L827.543 180.233ZM840.253 192.835L833.23 181.788L834.87 180.745L835.967 182.472L836.111 182.38C835.966 181.644 836.047 180.95 836.352 180.298C836.655 179.641 837.166 179.083 837.885 178.626C838.614 178.163 839.326 177.943 840.021 177.966C840.717 177.981 841.389 178.196 842.037 178.612L842.152 178.539C842.073 177.789 842.209 177.066 842.561 176.371C842.911 175.67 843.481 175.069 844.272 174.566C845.26 173.938 846.264 173.734 847.286 173.953C848.304 174.167 849.226 174.924 850.052 176.224L854.753 183.617L853.055 184.697L848.355 177.303C847.837 176.488 847.243 176.047 846.575 175.98C845.907 175.914 845.27 176.072 844.666 176.457C843.889 176.95 843.437 177.568 843.309 178.309C843.178 179.045 843.339 179.771 843.794 180.485L848.366 187.678L846.64 188.775L841.83 181.209C841.43 180.581 840.905 180.204 840.254 180.08C839.599 179.95 838.951 180.09 838.308 180.499C837.867 180.779 837.529 181.159 837.295 181.637C837.066 182.113 836.966 182.634 836.996 183.201C837.028 183.76 837.216 184.31 837.561 184.852L841.95 191.756L840.253 192.835ZM861.272 179.837C860.572 180.282 859.853 180.554 859.114 180.653C858.373 180.747 857.675 180.649 857.019 180.359C856.36 180.064 855.802 179.557 855.345 178.838C854.943 178.205 854.741 177.613 854.74 177.061C854.737 176.504 854.872 175.981 855.146 175.49C855.42 175 855.773 174.539 856.207 174.109C856.642 173.671 857.094 173.255 857.565 172.862C858.181 172.349 858.684 171.938 859.074 171.63C859.466 171.313 859.722 171.039 859.844 170.807C859.97 170.572 859.947 170.317 859.773 170.044L859.736 169.987C859.285 169.277 858.74 168.849 858.102 168.703C857.469 168.553 856.761 168.727 855.979 169.224C855.169 169.739 854.647 170.32 854.412 170.968C854.177 171.615 854.094 172.2 854.163 172.722L852.186 173.17C852.047 172.316 852.099 171.55 852.34 170.871C852.584 170.184 852.944 169.585 853.42 169.074C853.898 168.555 854.415 168.118 854.971 167.765C855.326 167.539 855.761 167.323 856.276 167.117C856.793 166.903 857.349 166.788 857.945 166.772C858.546 166.754 859.157 166.915 859.777 167.254C860.397 167.594 860.986 168.203 861.543 169.08L866.171 176.359L864.473 177.438L863.522 175.942L863.436 175.997C863.473 176.31 863.445 176.688 863.35 177.132C863.255 177.576 863.046 178.036 862.722 178.511C862.398 178.986 861.914 179.428 861.272 179.837ZM860.561 178.147C861.233 177.721 861.715 177.229 862.007 176.673C862.305 176.113 862.438 175.55 862.408 174.984C862.383 174.414 862.224 173.899 861.931 173.439L860.943 171.885C860.926 172.017 860.818 172.197 860.62 172.425C860.423 172.644 860.183 172.881 859.9 173.135C859.618 173.381 859.341 173.618 859.068 173.845C858.797 174.064 858.578 174.244 858.411 174.384C858.007 174.722 857.654 175.077 857.353 175.451C857.053 175.816 856.867 176.201 856.793 176.604C856.721 177 856.823 177.414 857.097 177.845C857.472 178.435 857.974 178.742 858.602 178.767C859.232 178.784 859.885 178.577 860.561 178.147ZM876.508 175.927C875.688 176.449 874.916 176.791 874.192 176.955C873.472 177.124 872.806 177.163 872.197 177.073C871.595 176.984 871.057 176.821 870.583 176.584L871.332 174.775C871.613 174.878 871.954 174.985 872.353 175.095C872.756 175.209 873.222 175.233 873.751 175.165C874.289 175.1 874.891 174.855 875.557 174.431C876.449 173.864 877.048 173.181 877.354 172.38C877.659 171.58 877.52 170.719 876.934 169.799L875.508 167.555L875.364 167.646C875.367 167.927 875.349 168.289 875.307 168.733C875.268 169.168 875.108 169.637 874.828 170.138C874.549 170.632 874.05 171.107 873.331 171.565C872.439 172.132 871.504 172.43 870.526 172.459C869.553 172.485 868.604 172.226 867.68 171.683C866.76 171.137 865.934 170.288 865.203 169.137C864.483 168.006 864.056 166.894 863.921 165.802C863.782 164.705 863.921 163.701 864.338 162.789C864.752 161.873 865.424 161.119 866.355 160.528C867.074 160.07 867.721 159.828 868.295 159.799C868.871 159.763 869.368 159.824 869.785 159.983C870.204 160.134 870.537 160.265 870.784 160.378L870.956 160.268L869.841 158.513L871.481 157.471L878.705 168.835C879.309 169.784 879.584 170.693 879.53 171.562C879.484 172.433 879.188 173.237 878.641 173.976C878.101 174.716 877.39 175.366 876.508 175.927ZM872.591 169.894C873.272 169.461 873.749 168.939 874.02 168.329C874.292 167.718 874.364 167.043 874.237 166.302C874.11 165.562 873.787 164.784 873.269 163.969C872.763 163.173 872.196 162.547 871.569 162.09C870.943 161.634 870.284 161.382 869.595 161.336C868.906 161.289 868.216 161.485 867.525 161.924C866.806 162.382 866.323 162.945 866.075 163.614C865.832 164.28 865.785 164.997 865.936 165.763C866.091 166.526 866.406 167.281 866.882 168.029C867.37 168.797 867.921 169.399 868.536 169.836C869.152 170.266 869.804 170.497 870.492 170.531C871.182 170.557 871.882 170.345 872.591 169.894ZM886.389 163.829C885.325 164.505 884.257 164.854 883.186 164.875C882.117 164.888 881.105 164.603 880.148 164.019C879.193 163.428 878.356 162.566 877.636 161.435C876.917 160.303 876.489 159.175 876.353 158.05C876.218 156.917 876.369 155.872 876.804 154.915C877.241 153.95 877.958 153.151 878.956 152.517C879.531 152.151 880.16 151.886 880.843 151.721C881.526 151.556 882.235 151.543 882.969 151.682C883.701 151.816 884.428 152.149 885.149 152.68C885.87 153.211 886.559 153.992 887.214 155.023L887.671 155.742L879.156 161.156L878.223 159.689L885.012 155.372C884.616 154.749 884.138 154.272 883.578 153.941C883.022 153.608 882.427 153.444 881.791 153.451C881.161 153.455 880.539 153.651 879.925 154.042C879.249 154.471 878.771 155.011 878.49 155.661C878.211 156.303 878.109 156.973 878.184 157.673C878.259 158.373 878.489 159.028 878.877 159.637L879.498 160.615C880.029 161.449 880.622 162.065 881.279 162.462C881.937 162.852 882.621 163.033 883.331 163.006C884.038 162.974 884.734 162.74 885.42 162.304C885.866 162.02 886.229 161.702 886.509 161.349C886.791 160.988 886.984 160.596 887.086 160.174C887.185 159.748 887.184 159.297 887.084 158.822L889.017 158.24C889.198 158.906 889.219 159.579 889.079 160.26C888.937 160.936 888.641 161.583 888.191 162.199C887.738 162.81 887.137 163.353 886.389 163.829ZM893.399 159.049L886.376 148.001L888.016 146.959L889.113 148.685L889.257 148.594C889.112 147.858 889.193 147.163 889.499 146.511C889.801 145.854 890.312 145.297 891.032 144.84C891.76 144.377 892.472 144.156 893.167 144.179C893.863 144.194 894.535 144.41 895.184 144.826L895.299 144.753C895.219 144.002 895.355 143.28 895.708 142.584C896.057 141.884 896.627 141.283 897.418 140.78C898.406 140.152 899.411 139.947 900.432 140.167C901.45 140.381 902.373 141.138 903.199 142.437L907.899 149.831L906.202 150.91L901.501 143.516C900.983 142.701 900.39 142.26 899.721 142.194C899.053 142.127 898.417 142.286 897.812 142.67C897.036 143.164 896.583 143.782 896.455 144.523C896.324 145.259 896.486 145.985 896.94 146.699L901.512 153.891L899.786 154.989L894.976 147.422C894.577 146.794 894.051 146.418 893.4 146.293C892.745 146.164 892.097 146.304 891.454 146.712C891.013 146.993 890.676 147.372 890.441 147.851C890.212 148.327 890.112 148.848 890.143 149.414C890.175 149.973 890.363 150.523 890.707 151.065L895.097 157.97L893.399 159.049Z" fill="black"/>
<path d="M1140.54 193.233L1149.91 207.963L1148.12 209.097L1138.76 194.367L1140.54 193.233ZM1153.25 205.835L1146.23 194.788L1147.87 193.745L1148.97 195.472L1149.11 195.38C1148.97 194.644 1149.05 193.95 1149.35 193.298C1149.66 192.641 1150.17 192.083 1150.89 191.626C1151.61 191.163 1152.33 190.943 1153.02 190.966C1153.72 190.981 1154.39 191.196 1155.04 191.612L1155.15 191.539C1155.07 190.789 1155.21 190.066 1155.56 189.371C1155.91 188.67 1156.48 188.069 1157.27 187.566C1158.26 186.938 1159.26 186.734 1160.29 186.953C1161.3 187.167 1162.23 187.924 1163.05 189.224L1167.75 196.617L1166.06 197.697L1161.36 190.303C1160.84 189.488 1160.24 189.047 1159.58 188.98C1158.91 188.914 1158.27 189.072 1157.67 189.457C1156.89 189.95 1156.44 190.568 1156.31 191.309C1156.18 192.045 1156.34 192.771 1156.79 193.485L1161.37 200.678L1159.64 201.775L1154.83 194.209C1154.43 193.581 1153.9 193.204 1153.25 193.08C1152.6 192.95 1151.95 193.09 1151.31 193.499C1150.87 193.779 1150.53 194.159 1150.3 194.637C1150.07 195.113 1149.97 195.634 1150 196.201C1150.03 196.76 1150.22 197.31 1150.56 197.852L1154.95 204.756L1153.25 205.835ZM1174.27 192.837C1173.57 193.282 1172.85 193.554 1172.11 193.653C1171.37 193.747 1170.67 193.649 1170.02 193.359C1169.36 193.064 1168.8 192.557 1168.34 191.838C1167.94 191.205 1167.74 190.613 1167.74 190.061C1167.74 189.504 1167.87 188.981 1168.15 188.49C1168.42 188 1168.77 187.539 1169.21 187.109C1169.64 186.671 1170.09 186.255 1170.56 185.862C1171.18 185.349 1171.68 184.938 1172.07 184.63C1172.47 184.313 1172.72 184.039 1172.84 183.807C1172.97 183.572 1172.95 183.317 1172.77 183.044L1172.74 182.987C1172.29 182.277 1171.74 181.849 1171.1 181.703C1170.47 181.553 1169.76 181.727 1168.98 182.224C1168.17 182.739 1167.65 183.32 1167.41 183.968C1167.18 184.615 1167.09 185.2 1167.16 185.722L1165.19 186.17C1165.05 185.316 1165.1 184.55 1165.34 183.871C1165.58 183.184 1165.94 182.585 1166.42 182.074C1166.9 181.555 1167.41 181.118 1167.97 180.765C1168.33 180.539 1168.76 180.323 1169.28 180.117C1169.79 179.903 1170.35 179.788 1170.95 179.772C1171.55 179.754 1172.16 179.915 1172.78 180.254C1173.4 180.594 1173.99 181.203 1174.54 182.08L1179.17 189.359L1177.47 190.438L1176.52 188.942L1176.44 188.997C1176.47 189.31 1176.44 189.688 1176.35 190.132C1176.26 190.576 1176.05 191.036 1175.72 191.511C1175.4 191.986 1174.91 192.428 1174.27 192.837ZM1173.56 191.147C1174.23 190.721 1174.71 190.229 1175.01 189.673C1175.3 189.113 1175.44 188.55 1175.41 187.984C1175.38 187.414 1175.22 186.899 1174.93 186.439L1173.94 184.885C1173.93 185.017 1173.82 185.197 1173.62 185.425C1173.42 185.644 1173.18 185.881 1172.9 186.135C1172.62 186.381 1172.34 186.618 1172.07 186.845C1171.8 187.064 1171.58 187.244 1171.41 187.384C1171.01 187.722 1170.65 188.077 1170.35 188.451C1170.05 188.816 1169.87 189.201 1169.79 189.604C1169.72 190 1169.82 190.414 1170.1 190.845C1170.47 191.435 1170.97 191.742 1171.6 191.767C1172.23 191.784 1172.89 191.577 1173.56 191.147ZM1189.51 188.927C1188.69 189.449 1187.92 189.791 1187.19 189.955C1186.47 190.124 1185.81 190.163 1185.2 190.073C1184.59 189.984 1184.06 189.821 1183.58 189.584L1184.33 187.775C1184.61 187.878 1184.95 187.985 1185.35 188.095C1185.76 188.209 1186.22 188.233 1186.75 188.165C1187.29 188.1 1187.89 187.855 1188.56 187.431C1189.45 186.864 1190.05 186.181 1190.35 185.38C1190.66 184.58 1190.52 183.719 1189.93 182.799L1188.51 180.555L1188.36 180.646C1188.37 180.927 1188.35 181.289 1188.31 181.733C1188.27 182.168 1188.11 182.637 1187.83 183.138C1187.55 183.632 1187.05 184.107 1186.33 184.565C1185.44 185.132 1184.5 185.43 1183.53 185.459C1182.55 185.485 1181.6 185.226 1180.68 184.683C1179.76 184.137 1178.93 183.288 1178.2 182.137C1177.48 181.006 1177.06 179.894 1176.92 178.802C1176.78 177.705 1176.92 176.701 1177.34 175.789C1177.75 174.873 1178.42 174.119 1179.35 173.528C1180.07 173.07 1180.72 172.828 1181.29 172.799C1181.87 172.763 1182.37 172.824 1182.79 172.983C1183.2 173.134 1183.54 173.265 1183.78 173.378L1183.96 173.268L1182.84 171.513L1184.48 170.471L1191.71 181.835C1192.31 182.784 1192.58 183.693 1192.53 184.562C1192.48 185.433 1192.19 186.237 1191.64 186.976C1191.1 187.716 1190.39 188.366 1189.51 188.927ZM1185.59 182.894C1186.27 182.461 1186.75 181.939 1187.02 181.329C1187.29 180.718 1187.36 180.043 1187.24 179.302C1187.11 178.562 1186.79 177.784 1186.27 176.969C1185.76 176.173 1185.2 175.547 1184.57 175.09C1183.94 174.634 1183.28 174.382 1182.6 174.336C1181.91 174.289 1181.22 174.485 1180.53 174.924C1179.81 175.382 1179.32 175.945 1179.07 176.614C1178.83 177.28 1178.79 177.997 1178.94 178.763C1179.09 179.526 1179.41 180.281 1179.88 181.029C1180.37 181.797 1180.92 182.399 1181.54 182.836C1182.15 183.266 1182.8 183.497 1183.49 183.531C1184.18 183.557 1184.88 183.345 1185.59 182.894ZM1199.39 176.829C1198.32 177.505 1197.26 177.854 1196.19 177.875C1195.12 177.888 1194.1 177.603 1193.15 177.019C1192.19 176.428 1191.36 175.566 1190.64 174.435C1189.92 173.303 1189.49 172.175 1189.35 171.05C1189.22 169.917 1189.37 168.872 1189.8 167.915C1190.24 166.95 1190.96 166.151 1191.96 165.517C1192.53 165.151 1193.16 164.886 1193.84 164.721C1194.53 164.556 1195.23 164.543 1195.97 164.682C1196.7 164.816 1197.43 165.149 1198.15 165.68C1198.87 166.211 1199.56 166.992 1200.21 168.023L1200.67 168.742L1192.16 174.156L1191.22 172.689L1198.01 168.372C1197.62 167.749 1197.14 167.272 1196.58 166.941C1196.02 166.608 1195.43 166.444 1194.79 166.451C1194.16 166.455 1193.54 166.651 1192.92 167.042C1192.25 167.471 1191.77 168.011 1191.49 168.661C1191.21 169.303 1191.11 169.973 1191.18 170.673C1191.26 171.373 1191.49 172.028 1191.88 172.637L1192.5 173.615C1193.03 174.449 1193.62 175.065 1194.28 175.462C1194.94 175.852 1195.62 176.033 1196.33 176.006C1197.04 175.974 1197.73 175.74 1198.42 175.304C1198.87 175.02 1199.23 174.702 1199.51 174.349C1199.79 173.988 1199.98 173.596 1200.09 173.174C1200.18 172.748 1200.18 172.297 1200.08 171.822L1202.02 171.24C1202.2 171.906 1202.22 172.579 1202.08 173.26C1201.94 173.936 1201.64 174.583 1201.19 175.199C1200.74 175.81 1200.14 176.353 1199.39 176.829ZM1206.4 172.049L1199.38 161.001L1201.02 159.959L1202.11 161.685L1202.26 161.594C1202.11 160.858 1202.19 160.163 1202.5 159.511C1202.8 158.854 1203.31 158.297 1204.03 157.84C1204.76 157.377 1205.47 157.156 1206.17 157.179C1206.86 157.194 1207.54 157.41 1208.18 157.826L1208.3 157.753C1208.22 157.002 1208.36 156.28 1208.71 155.584C1209.06 154.884 1209.63 154.283 1210.42 153.78C1211.41 153.152 1212.41 152.947 1213.43 153.167C1214.45 153.381 1215.37 154.138 1216.2 155.437L1220.9 162.831L1219.2 163.91L1214.5 156.516C1213.98 155.701 1213.39 155.26 1212.72 155.194C1212.05 155.127 1211.42 155.286 1210.81 155.67C1210.04 156.164 1209.58 156.782 1209.46 157.523C1209.32 158.259 1209.49 158.985 1209.94 159.699L1214.51 166.891L1212.79 167.989L1207.98 160.422C1207.58 159.794 1207.05 159.418 1206.4 159.293C1205.75 159.164 1205.1 159.304 1204.45 159.712C1204.01 159.993 1203.68 160.372 1203.44 160.851C1203.21 161.327 1203.11 161.848 1203.14 162.414C1203.17 162.973 1203.36 163.523 1203.71 164.065L1208.1 170.97L1206.4 172.049Z" fill="black"/>
<path d="M1512.54 451.842L1521.91 466.572L1520.12 467.706L1510.76 452.976L1512.54 451.842ZM1525.25 464.445L1518.23 453.397L1519.87 452.355L1520.97 454.081L1521.11 453.99C1520.97 453.253 1521.05 452.559 1521.35 451.907C1521.66 451.25 1522.17 450.693 1522.89 450.236C1523.61 449.772 1524.33 449.552 1525.02 449.575C1525.72 449.59 1526.39 449.806 1527.04 450.222L1527.15 450.149C1527.07 449.398 1527.21 448.675 1527.56 447.98C1527.91 447.28 1528.48 446.678 1529.27 446.175C1530.26 445.548 1531.26 445.343 1532.29 445.562C1533.3 445.777 1534.23 446.534 1535.05 447.833L1539.75 455.227L1538.06 456.306L1533.36 448.912C1532.84 448.097 1532.24 447.656 1531.58 447.59C1530.91 447.523 1530.27 447.682 1529.67 448.066C1528.89 448.56 1528.44 449.177 1528.31 449.919C1528.18 450.655 1528.34 451.38 1528.79 452.095L1533.37 459.287L1531.64 460.385L1526.83 452.818C1526.43 452.19 1525.9 451.814 1525.25 451.689C1524.6 451.56 1523.95 451.7 1523.31 452.108C1522.87 452.388 1522.53 452.768 1522.3 453.247C1522.07 453.723 1521.97 454.244 1522 454.81C1522.03 455.369 1522.22 455.919 1522.56 456.461L1526.95 463.366L1525.25 464.445ZM1546.27 451.446C1545.57 451.891 1544.85 452.163 1544.11 452.262C1543.37 452.356 1542.67 452.259 1542.02 451.968C1541.36 451.674 1540.8 451.167 1540.34 450.447C1539.94 449.814 1539.74 449.222 1539.74 448.67C1539.74 448.114 1539.87 447.59 1540.15 447.1C1540.42 446.609 1540.77 446.149 1541.21 445.718C1541.64 445.28 1542.09 444.864 1542.56 444.471C1543.18 443.958 1543.68 443.547 1544.07 443.239C1544.47 442.923 1544.72 442.649 1544.84 442.416C1544.97 442.181 1544.95 441.927 1544.77 441.654L1544.74 441.596C1544.29 440.886 1543.74 440.458 1543.1 440.312C1542.47 440.163 1541.76 440.337 1540.98 440.833C1540.17 441.349 1539.65 441.93 1539.41 442.577C1539.18 443.225 1539.09 443.809 1539.16 444.331L1537.19 444.78C1537.05 443.926 1537.1 443.159 1537.34 442.48C1537.58 441.794 1537.94 441.195 1538.42 440.683C1538.9 440.164 1539.41 439.728 1539.97 439.374C1540.33 439.148 1540.76 438.933 1541.28 438.726C1541.79 438.512 1542.35 438.397 1542.95 438.382C1543.55 438.363 1544.16 438.524 1544.78 438.864C1545.4 439.204 1545.99 439.812 1546.54 440.69L1551.17 447.968L1549.47 449.047L1548.52 447.551L1548.44 447.606C1548.47 447.919 1548.44 448.298 1548.35 448.742C1548.26 449.186 1548.05 449.645 1547.72 450.121C1547.4 450.596 1546.91 451.038 1546.27 451.446ZM1545.56 449.757C1546.23 449.33 1546.71 448.838 1547.01 448.282C1547.3 447.723 1547.44 447.16 1547.41 446.593C1547.38 446.024 1547.22 445.509 1546.93 445.048L1545.94 443.495C1545.93 443.627 1545.82 443.807 1545.62 444.034C1545.42 444.254 1545.18 444.49 1544.9 444.744C1544.62 444.99 1544.34 445.227 1544.07 445.454C1543.8 445.674 1543.58 445.853 1543.41 445.993C1543.01 446.331 1542.65 446.687 1542.35 447.06C1542.05 447.426 1541.87 447.81 1541.79 448.214C1541.72 448.609 1541.82 449.023 1542.1 449.455C1542.47 450.044 1542.97 450.352 1543.6 450.376C1544.23 450.393 1544.89 450.187 1545.56 449.757ZM1561.51 447.537C1560.69 448.058 1559.92 448.401 1559.19 448.565C1558.47 448.733 1557.81 448.773 1557.2 448.682C1556.59 448.593 1556.06 448.43 1555.58 448.193L1556.33 446.384C1556.61 446.488 1556.95 446.595 1557.35 446.704C1557.76 446.818 1558.22 446.842 1558.75 446.775C1559.29 446.709 1559.89 446.465 1560.56 446.041C1561.45 445.474 1562.05 444.79 1562.35 443.99C1562.66 443.189 1562.52 442.329 1561.93 441.408L1560.51 439.164L1560.36 439.256C1560.37 439.536 1560.35 439.898 1560.31 440.342C1560.27 440.778 1560.11 441.246 1559.83 441.748C1559.55 442.241 1559.05 442.717 1558.33 443.174C1557.44 443.741 1556.5 444.039 1555.53 444.068C1554.55 444.095 1553.6 443.836 1552.68 443.293C1551.76 442.746 1550.93 441.897 1550.2 440.747C1549.48 439.615 1549.06 438.503 1548.92 437.411C1548.78 436.314 1548.92 435.31 1549.34 434.399C1549.75 433.482 1550.42 432.728 1551.35 432.137C1552.07 431.68 1552.72 431.437 1553.29 431.409C1553.87 431.372 1554.37 431.433 1554.79 431.592C1555.2 431.743 1555.54 431.875 1555.78 431.988L1555.96 431.878L1554.84 430.123L1556.48 429.08L1563.71 440.444C1564.31 441.394 1564.58 442.303 1564.53 443.172C1564.48 444.042 1564.19 444.847 1563.64 445.585C1563.1 446.325 1562.39 446.976 1561.51 447.537ZM1557.59 441.503C1558.27 441.07 1558.75 440.549 1559.02 439.938C1559.29 439.328 1559.36 438.652 1559.24 437.912C1559.11 437.171 1558.79 436.394 1558.27 435.579C1557.76 434.783 1557.2 434.156 1556.57 433.7C1555.94 433.243 1555.28 432.992 1554.6 432.945C1553.91 432.899 1553.22 433.095 1552.53 433.534C1551.81 433.991 1551.32 434.554 1551.07 435.224C1550.83 435.89 1550.79 436.606 1550.94 437.372C1551.09 438.135 1551.41 438.891 1551.88 439.639C1552.37 440.406 1552.92 441.008 1553.54 441.446C1554.15 441.875 1554.8 442.107 1555.49 442.141C1556.18 442.167 1556.88 441.954 1557.59 441.503ZM1571.39 435.438C1570.32 436.115 1569.26 436.464 1568.19 436.484C1567.12 436.497 1566.1 436.212 1565.15 435.629C1564.19 435.037 1563.36 434.176 1562.64 433.044C1561.92 431.913 1561.49 430.784 1561.35 429.659C1561.22 428.526 1561.37 427.481 1561.8 426.524C1562.24 425.56 1562.96 424.76 1563.96 424.126C1564.53 423.761 1565.16 423.495 1565.84 423.33C1566.53 423.166 1567.23 423.153 1567.97 423.291C1568.7 423.426 1569.43 423.758 1570.15 424.289C1570.87 424.82 1571.56 425.601 1572.21 426.632L1572.67 427.352L1564.16 432.765L1563.22 431.298L1570.01 426.982C1569.62 426.358 1569.14 425.881 1568.58 425.551C1568.02 425.217 1567.43 425.054 1566.79 425.06C1566.16 425.064 1565.54 425.261 1564.92 425.651C1564.25 426.081 1563.77 426.621 1563.49 427.27C1563.21 427.912 1563.11 428.583 1563.18 429.283C1563.26 429.983 1563.49 430.637 1563.88 431.246L1564.5 432.224C1565.03 433.058 1565.62 433.674 1566.28 434.072C1566.94 434.461 1567.62 434.642 1568.33 434.615C1569.04 434.583 1569.73 434.349 1570.42 433.913C1570.87 433.63 1571.23 433.311 1571.51 432.958C1571.79 432.597 1571.98 432.206 1572.09 431.784C1572.18 431.357 1572.18 430.906 1572.08 430.431L1574.02 429.849C1574.2 430.515 1574.22 431.189 1574.08 431.87C1573.94 432.546 1573.64 433.192 1573.19 433.808C1572.74 434.419 1572.14 434.963 1571.39 435.438ZM1578.4 430.658L1571.38 419.611L1573.02 418.568L1574.11 420.295L1574.26 420.203C1574.11 419.467 1574.19 418.773 1574.5 418.121C1574.8 417.464 1575.31 416.907 1576.03 416.449C1576.76 415.986 1577.47 415.766 1578.17 415.789C1578.86 415.804 1579.54 416.02 1580.18 416.436L1580.3 416.362C1580.22 415.612 1580.36 414.889 1580.71 414.194C1581.06 413.494 1581.63 412.892 1582.42 412.389C1583.41 411.761 1584.41 411.557 1585.43 411.776C1586.45 411.99 1587.37 412.747 1588.2 414.047L1592.9 421.441L1591.2 422.52L1586.5 415.126C1585.98 414.311 1585.39 413.87 1584.72 413.803C1584.05 413.737 1583.42 413.896 1582.81 414.28C1582.04 414.773 1581.58 415.391 1581.46 416.132C1581.32 416.869 1581.49 417.594 1581.94 418.308L1586.51 425.501L1584.79 426.598L1579.98 419.032C1579.58 418.404 1579.05 418.027 1578.4 417.903C1577.75 417.774 1577.1 417.913 1576.45 418.322C1576.01 418.602 1575.68 418.982 1575.44 419.46C1575.21 419.936 1575.11 420.457 1575.14 421.024C1575.17 421.583 1575.36 422.133 1575.71 422.675L1580.1 429.579L1578.4 430.658Z" fill="black"/>
<path d="M1798.54 475.842L1807.91 490.572L1806.12 491.706L1796.76 476.976L1798.54 475.842ZM1811.25 488.445L1804.23 477.397L1805.87 476.355L1806.97 478.081L1807.11 477.99C1806.97 477.253 1807.05 476.559 1807.35 475.907C1807.66 475.25 1808.17 474.693 1808.89 474.236C1809.61 473.772 1810.33 473.552 1811.02 473.575C1811.72 473.59 1812.39 473.806 1813.04 474.222L1813.15 474.149C1813.07 473.398 1813.21 472.675 1813.56 471.98C1813.91 471.28 1814.48 470.678 1815.27 470.175C1816.26 469.548 1817.26 469.343 1818.29 469.562C1819.3 469.777 1820.23 470.534 1821.05 471.833L1825.75 479.227L1824.06 480.306L1819.36 472.912C1818.84 472.097 1818.24 471.656 1817.58 471.59C1816.91 471.523 1816.27 471.682 1815.67 472.066C1814.89 472.56 1814.44 473.177 1814.31 473.919C1814.18 474.655 1814.34 475.38 1814.79 476.095L1819.37 483.287L1817.64 484.385L1812.83 476.818C1812.43 476.19 1811.9 475.814 1811.25 475.689C1810.6 475.56 1809.95 475.7 1809.31 476.108C1808.87 476.388 1808.53 476.768 1808.3 477.247C1808.07 477.723 1807.97 478.244 1808 478.81C1808.03 479.369 1808.22 479.919 1808.56 480.461L1812.95 487.366L1811.25 488.445ZM1832.27 475.446C1831.57 475.891 1830.85 476.163 1830.11 476.262C1829.37 476.356 1828.67 476.259 1828.02 475.968C1827.36 475.674 1826.8 475.167 1826.34 474.447C1825.94 473.814 1825.74 473.222 1825.74 472.67C1825.74 472.114 1825.87 471.59 1826.15 471.1C1826.42 470.609 1826.77 470.149 1827.21 469.718C1827.64 469.28 1828.09 468.864 1828.56 468.471C1829.18 467.958 1829.68 467.547 1830.07 467.239C1830.47 466.923 1830.72 466.649 1830.84 466.416C1830.97 466.181 1830.95 465.927 1830.77 465.654L1830.74 465.596C1830.29 464.886 1829.74 464.458 1829.1 464.312C1828.47 464.163 1827.76 464.337 1826.98 464.833C1826.17 465.349 1825.65 465.93 1825.41 466.577C1825.18 467.225 1825.09 467.809 1825.16 468.331L1823.19 468.78C1823.05 467.926 1823.1 467.159 1823.34 466.48C1823.58 465.794 1823.94 465.195 1824.42 464.683C1824.9 464.164 1825.41 463.728 1825.97 463.374C1826.33 463.148 1826.76 462.933 1827.28 462.726C1827.79 462.512 1828.35 462.397 1828.95 462.382C1829.55 462.363 1830.16 462.524 1830.78 462.864C1831.4 463.204 1831.99 463.812 1832.54 464.69L1837.17 471.968L1835.47 473.047L1834.52 471.551L1834.44 471.606C1834.47 471.919 1834.44 472.298 1834.35 472.742C1834.26 473.186 1834.05 473.645 1833.72 474.121C1833.4 474.596 1832.91 475.038 1832.27 475.446ZM1831.56 473.757C1832.23 473.33 1832.71 472.838 1833.01 472.282C1833.3 471.723 1833.44 471.16 1833.41 470.593C1833.38 470.024 1833.22 469.509 1832.93 469.048L1831.94 467.495C1831.93 467.627 1831.82 467.807 1831.62 468.034C1831.42 468.254 1831.18 468.49 1830.9 468.744C1830.62 468.99 1830.34 469.227 1830.07 469.454C1829.8 469.674 1829.58 469.853 1829.41 469.993C1829.01 470.331 1828.65 470.687 1828.35 471.06C1828.05 471.426 1827.87 471.81 1827.79 472.214C1827.72 472.609 1827.82 473.023 1828.1 473.455C1828.47 474.044 1828.97 474.352 1829.6 474.376C1830.23 474.393 1830.89 474.187 1831.56 473.757ZM1847.51 471.537C1846.69 472.058 1845.92 472.401 1845.19 472.565C1844.47 472.733 1843.81 472.773 1843.2 472.682C1842.59 472.593 1842.06 472.43 1841.58 472.193L1842.33 470.384C1842.61 470.488 1842.95 470.595 1843.35 470.704C1843.76 470.818 1844.22 470.842 1844.75 470.775C1845.29 470.709 1845.89 470.465 1846.56 470.041C1847.45 469.474 1848.05 468.79 1848.35 467.99C1848.66 467.189 1848.52 466.329 1847.93 465.408L1846.51 463.164L1846.36 463.256C1846.37 463.536 1846.35 463.898 1846.31 464.342C1846.27 464.778 1846.11 465.246 1845.83 465.748C1845.55 466.241 1845.05 466.717 1844.33 467.174C1843.44 467.741 1842.5 468.039 1841.53 468.068C1840.55 468.095 1839.6 467.836 1838.68 467.293C1837.76 466.746 1836.93 465.897 1836.2 464.747C1835.48 463.615 1835.06 462.503 1834.92 461.411C1834.78 460.314 1834.92 459.31 1835.34 458.399C1835.75 457.482 1836.42 456.728 1837.35 456.137C1838.07 455.68 1838.72 455.437 1839.29 455.409C1839.87 455.372 1840.37 455.433 1840.79 455.592C1841.2 455.743 1841.54 455.875 1841.78 455.988L1841.96 455.878L1840.84 454.123L1842.48 453.08L1849.71 464.444C1850.31 465.394 1850.58 466.303 1850.53 467.172C1850.48 468.042 1850.19 468.847 1849.64 469.585C1849.1 470.325 1848.39 470.976 1847.51 471.537ZM1843.59 465.503C1844.27 465.07 1844.75 464.549 1845.02 463.938C1845.29 463.328 1845.36 462.652 1845.24 461.912C1845.11 461.171 1844.79 460.394 1844.27 459.579C1843.76 458.783 1843.2 458.156 1842.57 457.7C1841.94 457.243 1841.28 456.992 1840.6 456.945C1839.91 456.899 1839.22 457.095 1838.53 457.534C1837.81 457.991 1837.32 458.554 1837.07 459.224C1836.83 459.89 1836.79 460.606 1836.94 461.372C1837.09 462.135 1837.41 462.891 1837.88 463.639C1838.37 464.406 1838.92 465.008 1839.54 465.446C1840.15 465.875 1840.8 466.107 1841.49 466.141C1842.18 466.167 1842.88 465.954 1843.59 465.503ZM1857.39 459.438C1856.32 460.115 1855.26 460.464 1854.19 460.484C1853.12 460.497 1852.1 460.212 1851.15 459.629C1850.19 459.037 1849.36 458.176 1848.64 457.044C1847.92 455.913 1847.49 454.784 1847.35 453.659C1847.22 452.526 1847.37 451.481 1847.8 450.524C1848.24 449.56 1848.96 448.76 1849.96 448.126C1850.53 447.761 1851.16 447.495 1851.84 447.33C1852.53 447.166 1853.23 447.153 1853.97 447.291C1854.7 447.426 1855.43 447.758 1856.15 448.289C1856.87 448.82 1857.56 449.601 1858.21 450.632L1858.67 451.352L1850.16 456.765L1849.22 455.298L1856.01 450.982C1855.62 450.358 1855.14 449.881 1854.58 449.551C1854.02 449.217 1853.43 449.054 1852.79 449.06C1852.16 449.064 1851.54 449.261 1850.92 449.651C1850.25 450.081 1849.77 450.621 1849.49 451.27C1849.21 451.912 1849.11 452.583 1849.18 453.283C1849.26 453.983 1849.49 454.637 1849.88 455.246L1850.5 456.224C1851.03 457.058 1851.62 457.674 1852.28 458.072C1852.94 458.461 1853.62 458.642 1854.33 458.615C1855.04 458.583 1855.73 458.349 1856.42 457.913C1856.87 457.63 1857.23 457.311 1857.51 456.958C1857.79 456.597 1857.98 456.206 1858.09 455.784C1858.18 455.357 1858.18 454.906 1858.08 454.431L1860.02 453.849C1860.2 454.515 1860.22 455.189 1860.08 455.87C1859.94 456.546 1859.64 457.192 1859.19 457.808C1858.74 458.419 1858.14 458.963 1857.39 459.438ZM1864.4 454.658L1857.38 443.611L1859.02 442.568L1860.11 444.295L1860.26 444.203C1860.11 443.467 1860.19 442.773 1860.5 442.121C1860.8 441.464 1861.31 440.907 1862.03 440.449C1862.76 439.986 1863.47 439.766 1864.17 439.789C1864.86 439.804 1865.54 440.02 1866.18 440.436L1866.3 440.362C1866.22 439.612 1866.36 438.889 1866.71 438.194C1867.06 437.494 1867.63 436.892 1868.42 436.389C1869.41 435.761 1870.41 435.557 1871.43 435.776C1872.45 435.99 1873.37 436.747 1874.2 438.047L1878.9 445.441L1877.2 446.52L1872.5 439.126C1871.98 438.311 1871.39 437.87 1870.72 437.803C1870.05 437.737 1869.42 437.896 1868.81 438.28C1868.04 438.773 1867.58 439.391 1867.46 440.132C1867.32 440.869 1867.49 441.594 1867.94 442.308L1872.51 449.501L1870.79 450.598L1865.98 443.032C1865.58 442.404 1865.05 442.027 1864.4 441.903C1863.75 441.774 1863.1 441.913 1862.45 442.322C1862.01 442.602 1861.68 442.982 1861.44 443.46C1861.21 443.936 1861.11 444.457 1861.14 445.024C1861.17 445.583 1861.36 446.133 1861.71 446.675L1866.1 453.579L1864.4 454.658Z" fill="black"/>
<path d="M1466.54 182.842L1475.91 197.572L1474.12 198.706L1464.76 183.976L1466.54 182.842ZM1479.25 195.445L1472.23 184.397L1473.87 183.355L1474.97 185.081L1475.11 184.99C1474.97 184.253 1475.05 183.559 1475.35 182.907C1475.66 182.25 1476.17 181.693 1476.89 181.236C1477.61 180.772 1478.33 180.552 1479.02 180.575C1479.72 180.59 1480.39 180.806 1481.04 181.222L1481.15 181.149C1481.07 180.398 1481.21 179.675 1481.56 178.98C1481.91 178.28 1482.48 177.678 1483.27 177.175C1484.26 176.548 1485.26 176.343 1486.29 176.562C1487.3 176.777 1488.23 177.534 1489.05 178.833L1493.75 186.227L1492.06 187.306L1487.36 179.912C1486.84 179.097 1486.24 178.656 1485.58 178.59C1484.91 178.523 1484.27 178.682 1483.67 179.066C1482.89 179.56 1482.44 180.177 1482.31 180.919C1482.18 181.655 1482.34 182.38 1482.79 183.095L1487.37 190.287L1485.64 191.385L1480.83 183.818C1480.43 183.19 1479.9 182.814 1479.25 182.689C1478.6 182.56 1477.95 182.7 1477.31 183.108C1476.87 183.388 1476.53 183.768 1476.3 184.247C1476.07 184.723 1475.97 185.244 1476 185.81C1476.03 186.369 1476.22 186.919 1476.56 187.461L1480.95 194.366L1479.25 195.445ZM1500.27 182.446C1499.57 182.891 1498.85 183.163 1498.11 183.262C1497.37 183.356 1496.67 183.259 1496.02 182.968C1495.36 182.674 1494.8 182.167 1494.34 181.447C1493.94 180.814 1493.74 180.222 1493.74 179.67C1493.74 179.114 1493.87 178.59 1494.15 178.1C1494.42 177.609 1494.77 177.149 1495.21 176.718C1495.64 176.28 1496.09 175.864 1496.56 175.471C1497.18 174.958 1497.68 174.547 1498.07 174.239C1498.47 173.923 1498.72 173.649 1498.84 173.416C1498.97 173.181 1498.95 172.927 1498.77 172.654L1498.74 172.596C1498.29 171.886 1497.74 171.458 1497.1 171.312C1496.47 171.163 1495.76 171.337 1494.98 171.833C1494.17 172.349 1493.65 172.93 1493.41 173.577C1493.18 174.225 1493.09 174.809 1493.16 175.331L1491.19 175.78C1491.05 174.926 1491.1 174.159 1491.34 173.48C1491.58 172.794 1491.94 172.195 1492.42 171.683C1492.9 171.164 1493.41 170.728 1493.97 170.374C1494.33 170.148 1494.76 169.933 1495.28 169.726C1495.79 169.512 1496.35 169.397 1496.95 169.382C1497.55 169.363 1498.16 169.524 1498.78 169.864C1499.4 170.204 1499.99 170.812 1500.54 171.69L1505.17 178.968L1503.47 180.047L1502.52 178.551L1502.44 178.606C1502.47 178.919 1502.44 179.298 1502.35 179.742C1502.26 180.186 1502.05 180.645 1501.72 181.121C1501.4 181.596 1500.91 182.038 1500.27 182.446ZM1499.56 180.757C1500.23 180.33 1500.71 179.838 1501.01 179.282C1501.3 178.723 1501.44 178.16 1501.41 177.593C1501.38 177.024 1501.22 176.509 1500.93 176.048L1499.94 174.495C1499.93 174.627 1499.82 174.807 1499.62 175.034C1499.42 175.254 1499.18 175.49 1498.9 175.744C1498.62 175.99 1498.34 176.227 1498.07 176.454C1497.8 176.674 1497.58 176.853 1497.41 176.993C1497.01 177.331 1496.65 177.687 1496.35 178.06C1496.05 178.426 1495.87 178.81 1495.79 179.214C1495.72 179.609 1495.82 180.023 1496.1 180.455C1496.47 181.044 1496.97 181.352 1497.6 181.376C1498.23 181.393 1498.89 181.187 1499.56 180.757ZM1515.51 178.537C1514.69 179.058 1513.92 179.401 1513.19 179.565C1512.47 179.733 1511.81 179.773 1511.2 179.682C1510.59 179.593 1510.06 179.43 1509.58 179.193L1510.33 177.384C1510.61 177.488 1510.95 177.595 1511.35 177.704C1511.76 177.818 1512.22 177.842 1512.75 177.775C1513.29 177.709 1513.89 177.465 1514.56 177.041C1515.45 176.474 1516.05 175.79 1516.35 174.99C1516.66 174.189 1516.52 173.329 1515.93 172.408L1514.51 170.164L1514.36 170.256C1514.37 170.536 1514.35 170.898 1514.31 171.342C1514.27 171.778 1514.11 172.246 1513.83 172.748C1513.55 173.241 1513.05 173.717 1512.33 174.174C1511.44 174.741 1510.5 175.039 1509.53 175.068C1508.55 175.095 1507.6 174.836 1506.68 174.293C1505.76 173.746 1504.93 172.897 1504.2 171.747C1503.48 170.615 1503.06 169.503 1502.92 168.411C1502.78 167.314 1502.92 166.31 1503.34 165.399C1503.75 164.482 1504.42 163.728 1505.35 163.137C1506.07 162.68 1506.72 162.437 1507.29 162.409C1507.87 162.372 1508.37 162.433 1508.79 162.592C1509.2 162.743 1509.54 162.875 1509.78 162.988L1509.96 162.878L1508.84 161.123L1510.48 160.08L1517.71 171.444C1518.31 172.394 1518.58 173.303 1518.53 174.172C1518.48 175.042 1518.19 175.847 1517.64 176.585C1517.1 177.325 1516.39 177.976 1515.51 178.537ZM1511.59 172.503C1512.27 172.07 1512.75 171.549 1513.02 170.938C1513.29 170.328 1513.36 169.652 1513.24 168.912C1513.11 168.171 1512.79 167.394 1512.27 166.579C1511.76 165.783 1511.2 165.156 1510.57 164.7C1509.94 164.243 1509.28 163.992 1508.6 163.945C1507.91 163.899 1507.22 164.095 1506.53 164.534C1505.81 164.991 1505.32 165.554 1505.07 166.224C1504.83 166.89 1504.79 167.606 1504.94 168.372C1505.09 169.135 1505.41 169.891 1505.88 170.639C1506.37 171.406 1506.92 172.008 1507.54 172.446C1508.15 172.875 1508.8 173.107 1509.49 173.141C1510.18 173.167 1510.88 172.954 1511.59 172.503ZM1525.39 166.438C1524.32 167.115 1523.26 167.464 1522.19 167.484C1521.12 167.497 1520.1 167.212 1519.15 166.629C1518.19 166.037 1517.36 165.176 1516.64 164.044C1515.92 162.913 1515.49 161.784 1515.35 160.659C1515.22 159.526 1515.37 158.481 1515.8 157.524C1516.24 156.56 1516.96 155.76 1517.96 155.126C1518.53 154.761 1519.16 154.495 1519.84 154.33C1520.53 154.166 1521.23 154.153 1521.97 154.291C1522.7 154.426 1523.43 154.758 1524.15 155.289C1524.87 155.82 1525.56 156.601 1526.21 157.632L1526.67 158.352L1518.16 163.765L1517.22 162.298L1524.01 157.982C1523.62 157.358 1523.14 156.881 1522.58 156.551C1522.02 156.217 1521.43 156.054 1520.79 156.06C1520.16 156.064 1519.54 156.261 1518.92 156.651C1518.25 157.081 1517.77 157.621 1517.49 158.27C1517.21 158.912 1517.11 159.583 1517.18 160.283C1517.26 160.983 1517.49 161.637 1517.88 162.246L1518.5 163.224C1519.03 164.058 1519.62 164.674 1520.28 165.072C1520.94 165.461 1521.62 165.642 1522.33 165.615C1523.04 165.583 1523.73 165.349 1524.42 164.913C1524.87 164.63 1525.23 164.311 1525.51 163.958C1525.79 163.597 1525.98 163.206 1526.09 162.784C1526.18 162.357 1526.18 161.906 1526.08 161.431L1528.02 160.849C1528.2 161.515 1528.22 162.189 1528.08 162.87C1527.94 163.546 1527.64 164.192 1527.19 164.808C1526.74 165.419 1526.14 165.963 1525.39 166.438ZM1532.4 161.658L1525.38 150.611L1527.02 149.568L1528.11 151.295L1528.26 151.203C1528.11 150.467 1528.19 149.773 1528.5 149.121C1528.8 148.464 1529.31 147.907 1530.03 147.449C1530.76 146.986 1531.47 146.766 1532.17 146.789C1532.86 146.804 1533.54 147.02 1534.18 147.436L1534.3 147.362C1534.22 146.612 1534.36 145.889 1534.71 145.194C1535.06 144.494 1535.63 143.892 1536.42 143.389C1537.41 142.761 1538.41 142.557 1539.43 142.776C1540.45 142.99 1541.37 143.747 1542.2 145.047L1546.9 152.441L1545.2 153.52L1540.5 146.126C1539.98 145.311 1539.39 144.87 1538.72 144.803C1538.05 144.737 1537.42 144.896 1536.81 145.28C1536.04 145.773 1535.58 146.391 1535.46 147.132C1535.32 147.869 1535.49 148.594 1535.94 149.308L1540.51 156.501L1538.79 157.598L1533.98 150.032C1533.58 149.404 1533.05 149.027 1532.4 148.903C1531.75 148.774 1531.1 148.913 1530.45 149.322C1530.01 149.602 1529.68 149.982 1529.44 150.46C1529.21 150.936 1529.11 151.457 1529.14 152.024C1529.17 152.583 1529.36 153.133 1529.71 153.675L1534.1 160.579L1532.4 161.658Z" fill="black"/>
<path d="M1779.54 195.842L1788.91 210.572L1787.12 211.706L1777.76 196.976L1779.54 195.842ZM1792.25 208.445L1785.23 197.397L1786.87 196.355L1787.97 198.081L1788.11 197.99C1787.97 197.253 1788.05 196.559 1788.35 195.907C1788.66 195.25 1789.17 194.693 1789.89 194.236C1790.61 193.772 1791.33 193.552 1792.02 193.575C1792.72 193.59 1793.39 193.806 1794.04 194.222L1794.15 194.149C1794.07 193.398 1794.21 192.675 1794.56 191.98C1794.91 191.28 1795.48 190.678 1796.27 190.175C1797.26 189.548 1798.26 189.343 1799.29 189.562C1800.3 189.777 1801.23 190.534 1802.05 191.833L1806.75 199.227L1805.06 200.306L1800.36 192.912C1799.84 192.097 1799.24 191.656 1798.58 191.59C1797.91 191.523 1797.27 191.682 1796.67 192.066C1795.89 192.56 1795.44 193.177 1795.31 193.919C1795.18 194.655 1795.34 195.38 1795.79 196.095L1800.37 203.287L1798.64 204.385L1793.83 196.818C1793.43 196.19 1792.9 195.814 1792.25 195.689C1791.6 195.56 1790.95 195.7 1790.31 196.108C1789.87 196.388 1789.53 196.768 1789.3 197.247C1789.07 197.723 1788.97 198.244 1789 198.81C1789.03 199.369 1789.22 199.919 1789.56 200.461L1793.95 207.366L1792.25 208.445ZM1813.27 195.446C1812.57 195.891 1811.85 196.163 1811.11 196.262C1810.37 196.356 1809.67 196.259 1809.02 195.968C1808.36 195.674 1807.8 195.167 1807.34 194.447C1806.94 193.814 1806.74 193.222 1806.74 192.67C1806.74 192.114 1806.87 191.59 1807.15 191.1C1807.42 190.609 1807.77 190.149 1808.21 189.718C1808.64 189.28 1809.09 188.864 1809.56 188.471C1810.18 187.958 1810.68 187.547 1811.07 187.239C1811.47 186.923 1811.72 186.649 1811.84 186.416C1811.97 186.181 1811.95 185.927 1811.77 185.654L1811.74 185.596C1811.29 184.886 1810.74 184.458 1810.1 184.312C1809.47 184.163 1808.76 184.337 1807.98 184.833C1807.17 185.349 1806.65 185.93 1806.41 186.577C1806.18 187.225 1806.09 187.809 1806.16 188.331L1804.19 188.78C1804.05 187.926 1804.1 187.159 1804.34 186.48C1804.58 185.794 1804.94 185.195 1805.42 184.683C1805.9 184.164 1806.41 183.728 1806.97 183.374C1807.33 183.148 1807.76 182.933 1808.28 182.726C1808.79 182.512 1809.35 182.397 1809.95 182.382C1810.55 182.363 1811.16 182.524 1811.78 182.864C1812.4 183.204 1812.99 183.812 1813.54 184.69L1818.17 191.968L1816.47 193.047L1815.52 191.551L1815.44 191.606C1815.47 191.919 1815.44 192.298 1815.35 192.742C1815.26 193.186 1815.05 193.645 1814.72 194.121C1814.4 194.596 1813.91 195.038 1813.27 195.446ZM1812.56 193.757C1813.23 193.33 1813.71 192.838 1814.01 192.282C1814.3 191.723 1814.44 191.16 1814.41 190.593C1814.38 190.024 1814.22 189.509 1813.93 189.048L1812.94 187.495C1812.93 187.627 1812.82 187.807 1812.62 188.034C1812.42 188.254 1812.18 188.49 1811.9 188.744C1811.62 188.99 1811.34 189.227 1811.07 189.454C1810.8 189.674 1810.58 189.853 1810.41 189.993C1810.01 190.331 1809.65 190.687 1809.35 191.06C1809.05 191.426 1808.87 191.81 1808.79 192.214C1808.72 192.609 1808.82 193.023 1809.1 193.455C1809.47 194.044 1809.97 194.352 1810.6 194.376C1811.23 194.393 1811.89 194.187 1812.56 193.757ZM1828.51 191.537C1827.69 192.058 1826.92 192.401 1826.19 192.565C1825.47 192.733 1824.81 192.773 1824.2 192.682C1823.59 192.593 1823.06 192.43 1822.58 192.193L1823.33 190.384C1823.61 190.488 1823.95 190.595 1824.35 190.704C1824.76 190.818 1825.22 190.842 1825.75 190.775C1826.29 190.709 1826.89 190.465 1827.56 190.041C1828.45 189.474 1829.05 188.79 1829.35 187.99C1829.66 187.189 1829.52 186.329 1828.93 185.408L1827.51 183.164L1827.36 183.256C1827.37 183.536 1827.35 183.898 1827.31 184.342C1827.27 184.778 1827.11 185.246 1826.83 185.748C1826.55 186.241 1826.05 186.717 1825.33 187.174C1824.44 187.741 1823.5 188.039 1822.53 188.068C1821.55 188.095 1820.6 187.836 1819.68 187.293C1818.76 186.746 1817.93 185.897 1817.2 184.747C1816.48 183.615 1816.06 182.503 1815.92 181.411C1815.78 180.314 1815.92 179.31 1816.34 178.399C1816.75 177.482 1817.42 176.728 1818.35 176.137C1819.07 175.68 1819.72 175.437 1820.29 175.409C1820.87 175.372 1821.37 175.433 1821.79 175.592C1822.2 175.743 1822.54 175.875 1822.78 175.988L1822.96 175.878L1821.84 174.123L1823.48 173.08L1830.71 184.444C1831.31 185.394 1831.58 186.303 1831.53 187.172C1831.48 188.042 1831.19 188.847 1830.64 189.585C1830.1 190.325 1829.39 190.976 1828.51 191.537ZM1824.59 185.503C1825.27 185.07 1825.75 184.549 1826.02 183.938C1826.29 183.328 1826.36 182.652 1826.24 181.912C1826.11 181.171 1825.79 180.394 1825.27 179.579C1824.76 178.783 1824.2 178.156 1823.57 177.7C1822.94 177.243 1822.28 176.992 1821.6 176.945C1820.91 176.899 1820.22 177.095 1819.53 177.534C1818.81 177.991 1818.32 178.554 1818.07 179.224C1817.83 179.89 1817.79 180.606 1817.94 181.372C1818.09 182.135 1818.41 182.891 1818.88 183.639C1819.37 184.406 1819.92 185.008 1820.54 185.446C1821.15 185.875 1821.8 186.107 1822.49 186.141C1823.18 186.167 1823.88 185.954 1824.59 185.503ZM1838.39 179.438C1837.32 180.115 1836.26 180.464 1835.19 180.484C1834.12 180.497 1833.1 180.212 1832.15 179.629C1831.19 179.037 1830.36 178.176 1829.64 177.044C1828.92 175.913 1828.49 174.784 1828.35 173.659C1828.22 172.526 1828.37 171.481 1828.8 170.524C1829.24 169.56 1829.96 168.76 1830.96 168.126C1831.53 167.761 1832.16 167.495 1832.84 167.33C1833.53 167.166 1834.23 167.153 1834.97 167.291C1835.7 167.426 1836.43 167.758 1837.15 168.289C1837.87 168.82 1838.56 169.601 1839.21 170.632L1839.67 171.352L1831.16 176.765L1830.22 175.298L1837.01 170.982C1836.62 170.358 1836.14 169.881 1835.58 169.551C1835.02 169.217 1834.43 169.054 1833.79 169.06C1833.16 169.064 1832.54 169.261 1831.92 169.651C1831.25 170.081 1830.77 170.621 1830.49 171.27C1830.21 171.912 1830.11 172.583 1830.18 173.283C1830.26 173.983 1830.49 174.637 1830.88 175.246L1831.5 176.224C1832.03 177.058 1832.62 177.674 1833.28 178.072C1833.94 178.461 1834.62 178.642 1835.33 178.615C1836.04 178.583 1836.73 178.349 1837.42 177.913C1837.87 177.63 1838.23 177.311 1838.51 176.958C1838.79 176.597 1838.98 176.206 1839.09 175.784C1839.18 175.357 1839.18 174.906 1839.08 174.431L1841.02 173.849C1841.2 174.515 1841.22 175.189 1841.08 175.87C1840.94 176.546 1840.64 177.192 1840.19 177.808C1839.74 178.419 1839.14 178.963 1838.39 179.438ZM1845.4 174.658L1838.38 163.611L1840.02 162.568L1841.11 164.295L1841.26 164.203C1841.11 163.467 1841.19 162.773 1841.5 162.121C1841.8 161.464 1842.31 160.907 1843.03 160.449C1843.76 159.986 1844.47 159.766 1845.17 159.789C1845.86 159.804 1846.54 160.02 1847.18 160.436L1847.3 160.362C1847.22 159.612 1847.36 158.889 1847.71 158.194C1848.06 157.494 1848.63 156.892 1849.42 156.389C1850.41 155.761 1851.41 155.557 1852.43 155.776C1853.45 155.99 1854.37 156.747 1855.2 158.047L1859.9 165.441L1858.2 166.52L1853.5 159.126C1852.98 158.311 1852.39 157.87 1851.72 157.803C1851.05 157.737 1850.42 157.896 1849.81 158.28C1849.04 158.773 1848.58 159.391 1848.46 160.132C1848.32 160.869 1848.49 161.594 1848.94 162.308L1853.51 169.501L1851.79 170.598L1846.98 163.032C1846.58 162.404 1846.05 162.027 1845.4 161.903C1844.75 161.774 1844.1 161.913 1843.45 162.322C1843.01 162.602 1842.68 162.982 1842.44 163.46C1842.21 163.936 1842.11 164.457 1842.14 165.024C1842.17 165.583 1842.36 166.133 1842.71 166.675L1847.1 173.579L1845.4 174.658Z" fill="black"/>
</svg>
