<svg width="122" height="38" viewBox="0 0 122 38" fill="none" xmlns="http://www.w3.org/2000/svg">
<path d="M88.6122 1.88151C85.7843 0.851057 82.7951 0.333969 79.7853 0.354598C70.052 0.354598 63.1778 5.25776 63.1292 12.2962C63.0683 17.467 68.0141 20.3809 71.7553 22.1086C75.5939 23.8849 76.8775 25.0043 76.8653 26.592C76.841 29.0071 73.7993 30.1021 70.9706 30.1021C67.0833 30.1021 64.9602 29.5607 61.6935 28.2041L60.4829 27.6383L59.102 35.7413C61.4684 36.7268 65.7328 37.5724 70.1371 37.6454C80.4849 37.6454 87.2496 32.7727 87.3286 25.2841C87.4138 21.1535 84.7371 18.0328 79.104 15.4534C75.6791 13.7805 73.556 12.6612 73.556 10.9639C73.556 9.46134 75.3749 7.85535 79.177 7.85535C81.7074 7.79412 84.2221 8.26888 86.5561 9.24843L87.4686 9.65601L88.8495 1.82676L88.6122 1.88151ZM113.87 1.0116H106.266C103.9 1.0116 102.117 1.66251 101.083 4.01068L86.4587 37.1405H96.8065L98.8748 31.7081L111.504 31.7203C111.802 32.9917 112.714 37.1405 112.714 37.1405H121.839L113.87 1.0116ZM49.1314 0.707429H58.9925L52.824 36.8546H42.9751L49.1314 0.695263V0.707429ZM24.0985 20.6303L25.1205 25.6491L34.7565 1.0116H45.2016L29.683 37.0918H19.2622L10.7456 6.54134C10.6076 6.03759 10.2837 5.60495 9.83915 5.33076C6.7695 3.74507 3.51701 2.54172 0.15448 1.74768L0.288313 0.987259H16.1597C18.3132 1.07243 20.047 1.74768 20.6249 4.04718L24.0924 20.6486L24.0985 20.6303ZM101.704 24.3168L105.633 14.2063C105.585 14.3158 106.442 12.1198 106.941 10.7632L107.617 13.8839L109.898 24.3108H101.697L101.704 24.3168Z" fill="black"/>
</svg>
