<svg width="26" height="26" viewBox="0 0 26 26" fill="none" xmlns="http://www.w3.org/2000/svg">
<path d="M7.54 0C3.38284 0 0 3.38284 0 7.54V17.98C0 22.1372 3.38284 25.52 7.54 25.52H17.98C22.1372 25.52 25.52 22.1372 25.52 17.98V7.54C25.52 3.38284 22.1372 0 17.98 0H7.54ZM7.54 1.16H17.98C21.5102 1.16 24.36 4.00984 24.36 7.54V17.98C24.36 21.5102 21.5102 24.36 17.98 24.36H7.54C4.00984 24.36 1.16 21.5102 1.16 17.98V7.54C1.16 4.00984 4.00984 1.16 7.54 1.16ZM19.72 4.64C19.4123 4.64 19.1173 4.76221 18.8998 4.97976C18.6822 5.1973 18.56 5.49235 18.56 5.8C18.56 6.10765 18.6822 6.4027 18.8998 6.62024C19.1173 6.83779 19.4123 6.96 19.72 6.96C20.0277 6.96 20.3227 6.83779 20.5402 6.62024C20.7578 6.4027 20.88 6.10765 20.88 5.8C20.88 5.49235 20.7578 5.1973 20.5402 4.97976C20.3227 4.76221 20.0277 4.64 19.72 4.64ZM12.76 6.38C9.24329 6.38 6.38 9.24329 6.38 12.76C6.38 16.2767 9.24329 19.14 12.76 19.14C16.2767 19.14 19.14 16.2767 19.14 12.76C19.14 9.24329 16.2767 6.38 12.76 6.38ZM12.76 7.54C15.6498 7.54 17.98 9.8702 17.98 12.76C17.98 15.6498 15.6498 17.98 12.76 17.98C9.8702 17.98 7.54 15.6498 7.54 12.76C7.54 9.8702 9.8702 7.54 12.76 7.54Z" fill="black"/>
</svg>
